<svg version="1.1" xmlns="http://www.w3.org/2000/svg" viewBox="0 0 1519.4959584497292 1443.7795957459984" width="1519.4959584497292" height="1443.7795957459984">
  <!-- svg-source:excalidraw -->
  
  <defs>
    <style class="style-fonts">
      @font-face {
        font-family: "Virgil";
        src: url("https://excalidraw.com/Virgil.woff2");
      }
      @font-face {
        font-family: "Cascadia";
        src: url("https://excalidraw.com/Cascadia.woff2");
      }
      @font-face {
        font-family: "Assistant";
        src: url("https://excalidraw.com/Assistant-Regular.woff2");
      }
    </style>
    
  </defs>
  <rect x="0" y="0" width="1519.4959584497292" height="1443.7795957459984" fill="#f8f9fa"></rect><g stroke-opacity="0" fill-opacity="0" stroke-linecap="round" transform="translate(351.81549727199945 189.33364959703476) rotate(0 58.378661581835615 58.378661581835615)"><path d="M67.96 1.14 C76.68 1.45, 86.9 5.49, 94.08 10.72 C101.26 15.96, 107.2 24.4, 111.06 32.53 C114.92 40.66, 117.58 50.5, 117.24 59.52 C116.89 68.55, 113.41 78.8, 108.99 86.7 C104.58 94.6, 98.23 101.92, 90.75 106.91 C83.28 111.9, 73.16 115.88, 64.15 116.63 C55.14 117.38, 45.06 115.06, 36.7 111.41 C28.33 107.75, 19.78 101.6, 13.96 94.71 C8.15 87.81, 3.67 78.75, 1.8 70.06 C-0.07 61.36, 0.55 51.24, 2.76 42.55 C4.98 33.85, 8.82 24.42, 15.11 17.88 C21.39 11.34, 30.78 5.99, 40.47 3.29 C50.16 0.59, 67.31 1.42, 73.25 1.66 C79.19 1.91, 76.59 3.67, 76.11 4.76 M55.27 -1.21 C63.57 -2.73, 72.31 -0.03, 80.33 3.79 C88.34 7.61, 97.35 14.52, 103.37 21.7 C109.39 28.89, 114.74 37.91, 116.44 46.91 C118.14 55.92, 116.16 67.18, 113.59 75.74 C111.02 84.29, 107.18 91.84, 101.02 98.22 C94.86 104.6, 85.51 111.2, 76.63 114.02 C67.76 116.84, 56.95 116.79, 47.79 115.12 C38.63 113.45, 28.9 109.16, 21.65 104.02 C14.4 98.89, 7.92 92.24, 4.29 84.31 C0.66 76.38, -0.63 65.82, -0.12 56.46 C0.39 47.11, 2.89 36.03, 7.36 28.19 C11.83 20.34, 18.95 13.89, 26.72 9.39 C34.49 4.89, 49.22 2.8, 53.99 1.21 C58.76 -0.39, 55.34 -1.06, 55.36 -0.18" stroke="#1e1e1e" stroke-width="1" fill="none"></path></g><g stroke-linecap="round" transform="translate(387.7486773950227 199.3961393835375) rotate(0 22.445481458812097 34.32736593007303)"><path d="M0 0 C16.8 0.33, 33.34 0.71, 44.89 0 M0 0 C16.8 0.48, 33.8 -0.12, 44.89 0 M44.89 0 C47.09 16.57, 47.38 31.2, 44.89 68.65 M44.89 0 C44.04 25.38, 44.45 48.71, 44.89 68.65 M44.89 68.65 C34.16 68.6, 18.54 69.67, 0 68.65 M44.89 68.65 C34.31 68.09, 24.73 67.69, 0 68.65 M0 68.65 C0.21 55.89, 0 40.2, 0 0 M0 68.65 C-0.21 45.68, -0.86 22.07, 0 0" stroke="#1e1e1e" stroke-width="1" fill="none"></path></g><g stroke-linecap="round" transform="translate(392.8881991566575 204.63041566799097) rotate(0 17.686344440215905 26.254098365838104)"><path d="M0 0 C12.74 0.77, 25.16 -1.7, 35.37 0 M0 0 C9.95 -0.27, 21.11 0.74, 35.37 0 M35.37 0 C37.64 10.74, 37.02 23.01, 35.37 52.51 M35.37 0 C35.35 17.73, 34.95 38.25, 35.37 52.51 M35.37 52.51 C22.22 53.41, 11.42 54.1, 0 52.51 M35.37 52.51 C25.91 51.43, 14.15 51.58, 0 52.51 M0 52.51 C-0.44 37.97, 0.79 26.57, 0 0 M0 52.51 C-0.54 39.86, -0.9 27.82, 0 0" stroke="#1e1e1e" stroke-width="1" fill="none"></path></g><g stroke-linecap="round" transform="translate(406.95246085207964 259.38574186085043) rotate(0 3.622082744793559 3.622082744793545)"><path d="M3.31 -0.27 C4.02 -0.42, 4.85 -0.07, 5.53 0.36 C6.21 0.79, 7.1 1.53, 7.38 2.3 C7.66 3.08, 7.53 4.31, 7.23 5.02 C6.94 5.73, 6.31 6.25, 5.62 6.56 C4.92 6.87, 3.84 7.02, 3.06 6.89 C2.28 6.75, 1.42 6.3, 0.94 5.74 C0.46 5.18, 0.24 4.29, 0.18 3.52 C0.13 2.74, 0.06 1.67, 0.62 1.09 C1.18 0.52, 3.03 0.26, 3.53 0.08 C4.03 -0.09, 3.71 -0.02, 3.62 0.06 M3.13 -0.23 C3.84 -0.42, 5.37 -0.26, 5.95 0.15 C6.53 0.56, 6.47 1.41, 6.6 2.22 C6.73 3.03, 6.92 4.24, 6.74 4.99 C6.55 5.74, 6.19 6.35, 5.49 6.73 C4.79 7.12, 3.29 7.54, 2.55 7.32 C1.8 7.1, 1.44 6.08, 1.03 5.43 C0.63 4.78, 0.16 4.19, 0.12 3.43 C0.08 2.67, 0.34 1.47, 0.79 0.87 C1.24 0.26, 2.48 -0.15, 2.82 -0.2 C3.17 -0.24, 2.8 0.43, 2.86 0.58" stroke="#1e1e1e" stroke-width="1" fill="none"></path></g><g stroke-linecap="round" transform="translate(398.136744061281 211.31441919018903) rotate(0 12.43779953559212 6.304023542482355)"><path d="M0 0 C8.6 -0.45, 17.57 -0.81, 24.88 0 M0 0 C6.92 0.28, 14.53 0.35, 24.88 0 M24.88 0 C25.27 2.6, 25.25 5.64, 24.88 12.61 M24.88 0 C24.92 2.81, 24.84 4.84, 24.88 12.61 M24.88 12.61 C16.12 12.54, 7.13 13.37, 0 12.61 M24.88 12.61 C19.45 12.44, 14.68 12.39, 0 12.61 M0 12.61 C-0.46 9.55, 0.01 5.95, 0 0 M0 12.61 C-0.18 9.79, 0.01 6.58, 0 0" stroke="#1e1e1e" stroke-width="1" fill="none"></path></g><g stroke-linecap="round" transform="translate(398.136744061281 233.8546944043983) rotate(0 12.43779953559212 6.304023542482355)"><path d="M0 0 C5.97 -0.84, 10.82 -0.54, 24.88 0 M0 0 C9.8 0.37, 19.11 0.21, 24.88 0 M24.88 0 C25.25 2.82, 24.3 5.32, 24.88 12.61 M24.88 0 C24.87 4.57, 25.03 9.51, 24.88 12.61 M24.88 12.61 C14.9 13.24, 5.03 11.59, 0 12.61 M24.88 12.61 C19.53 12.46, 13.45 12.77, 0 12.61 M0 12.61 C0.08 7.75, -0.28 2.93, 0 0 M0 12.61 C0 9.6, -0.12 6.05, 0 0" stroke="#1e1e1e" stroke-width="1" fill="none"></path></g><g transform="translate(386.7941802161397 271.02848297420314) rotate(0 23.399978637695312 12.5)"><text x="23.399978637695312" y="17.52" font-family="Virgil, Segoe UI Emoji" font-size="20px" fill="#1e1e1e" text-anchor="middle" style="white-space: pre;" direction="ltr" dominant-baseline="alphabetic">Login</text></g><g stroke-opacity="0" fill-opacity="0" stroke-linecap="round" transform="translate(769.5701994288079 184.35182892692) rotate(0 58.378661581835615 58.378661581835615)"><path d="M40.6 2.28 C48.43 -1.44, 59.26 -1.6, 68.13 -0.1 C77 1.39, 86.58 5.72, 93.82 11.28 C101.06 16.84, 107.9 25.11, 111.56 33.26 C115.21 41.42, 116.03 51.17, 115.76 60.22 C115.48 69.27, 114.12 79.67, 109.91 87.56 C105.71 95.44, 98.46 102.61, 90.54 107.52 C82.62 112.43, 71.63 116.1, 62.38 117.01 C53.13 117.92, 43.24 116.6, 35.03 112.99 C26.83 109.37, 18.89 102.32, 13.17 95.32 C7.45 88.31, 2.69 79.94, 0.72 70.95 C-1.25 61.95, -1.1 50.24, 1.34 41.37 C3.78 32.5, 7.87 24.31, 15.36 17.7 C22.86 11.09, 40 4.52, 46.32 1.72 C52.64 -1.07, 53.01 -0.07, 53.29 0.91 M37.98 2.67 C45.51 -1.17, 56.34 -1.72, 65.22 -0.1 C74.1 1.51, 83.74 6.81, 91.26 12.35 C98.78 17.9, 106.21 25.41, 110.33 33.17 C114.45 40.92, 116.26 49.91, 115.98 58.89 C115.7 67.87, 112.89 78.86, 108.64 87.05 C104.38 95.24, 97.63 103.39, 90.43 108.04 C83.23 112.69, 74.47 114.11, 65.43 114.95 C56.38 115.79, 44.6 116.26, 36.18 113.1 C27.76 109.93, 20.67 102.91, 14.91 95.96 C9.16 89.01, 3.88 80.35, 1.65 71.4 C-0.57 62.45, -0.81 50.91, 1.56 42.27 C3.93 33.62, 9.56 26.2, 15.87 19.52 C22.19 12.85, 35.82 4.86, 39.45 2.2 C43.09 -0.46, 37.69 2.29, 37.7 3.55" stroke="#1e1e1e" stroke-width="1" fill="none"></path></g><g transform="translate(797.0988930541005 267.3031120046253) rotate(0 30.84996795654297 12.5)"><text x="30.84996795654297" y="17.52" font-family="Virgil, Segoe UI Emoji" font-size="20px" fill="#1e1e1e" text-anchor="middle" style="white-space: pre;" direction="ltr" dominant-baseline="alphabetic">Server</text></g><g stroke-linecap="round" transform="translate(809.3146810121659 193.15786901288584) rotate(0 18.63417999847718 34.78380266382396)"><path d="M0 0 C10.6 -1.62, 18.73 -1.68, 37.27 0 M0 0 C13.39 -1.16, 26.27 0.66, 37.27 0 M37.27 0 C35.94 23.14, 36.43 46.04, 37.27 69.57 M37.27 0 C37.81 18.99, 36.16 39.04, 37.27 69.57 M37.27 69.57 C27.09 68.83, 18.66 71.04, 0 69.57 M37.27 69.57 C28.25 69.07, 19.28 69.15, 0 69.57 M0 69.57 C0.72 52.72, -1.31 36.62, 0 0 M0 69.57 C0.8 44.58, -0.25 21.92, 0 0" stroke="#1e1e1e" stroke-width="1" fill="none"></path></g><g stroke-linecap="round"><g transform="translate(814.0864238771799 200.85381967884155) rotate(0 14.286204665499099 1.1368683772161603e-13)"><path d="M-0.44 0.34 C4.24 0.31, 23.31 0.32, 28.12 0.31 M0.34 0.04 C5.18 0.08, 24.51 -0.39, 29.12 -0.5" stroke="#1e1e1e" stroke-width="1" fill="none"></path></g></g><mask></mask><g stroke-linecap="round"><g transform="translate(813.174521178408 207.2576174564499) rotate(0 14.286204665499099 1.1368683772161603e-13)"><path d="M-0.45 0.31 C4.36 0.3, 23.56 0.44, 28.41 0.3 M0.32 -0.01 C5.08 -0.2, 23.23 -0.48, 27.9 -0.52" stroke="#1e1e1e" stroke-width="1" fill="none"></path></g></g><mask></mask><g stroke-linecap="round"><g transform="translate(813.3007570546404 213.66141523405918) rotate(0 14.286204665499099 1.1368683772161603e-13)"><path d="M-0.16 0.3 C4.69 0.16, 23.88 -0.56, 28.64 -0.53 M0.76 -0.03 C5.58 -0.14, 23.71 -0.05, 28.24 -0.1" stroke="#1e1e1e" stroke-width="1" fill="none"></path></g></g><mask></mask><g stroke-linecap="round"><g transform="translate(813.2152216858701 220.065213011668) rotate(0 14.286204665499099 1.1368683772161603e-13)"><path d="M0.07 -0.53 C4.83 -0.5, 23.65 0.31, 28.42 0.47 M-0.56 0.39 C4.13 0.25, 23.09 -0.11, 27.91 -0.25" stroke="#1e1e1e" stroke-width="1" fill="none"></path></g></g><mask></mask><g stroke-linecap="round" transform="translate(834.7559306320594 226.99343870771827) rotate(0 3.3205816376434 2.4149684637405926)"><path d="M3.12 0.16 C3.71 0.19, 4.73 0.57, 5.31 0.89 C5.88 1.2, 6.45 1.51, 6.56 2.02 C6.67 2.52, 6.39 3.51, 5.97 3.91 C5.56 4.3, 4.74 4.28, 4.06 4.38 C3.37 4.48, 2.45 4.63, 1.84 4.52 C1.22 4.41, 0.65 4.18, 0.34 3.72 C0.03 3.26, -0.19 2.26, -0.02 1.77 C0.16 1.27, 0.84 1.01, 1.39 0.73 C1.94 0.45, 2.91 0.22, 3.27 0.08 C3.64 -0.06, 3.59 -0.07, 3.59 -0.08 M3.01 0.35 C3.7 0.18, 4.47 0.02, 5.01 0.3 C5.54 0.58, 6.02 1.46, 6.22 2.05 C6.42 2.63, 6.41 3.48, 6.21 3.82 C6.01 4.17, 5.68 3.94, 5.01 4.12 C4.35 4.3, 2.91 4.98, 2.22 4.9 C1.53 4.82, 1.22 4.1, 0.87 3.64 C0.51 3.19, 0.08 2.73, 0.08 2.17 C0.08 1.61, 0.35 0.62, 0.88 0.29 C1.41 -0.04, 2.84 0.31, 3.26 0.2 C3.67 0.09, 3.46 -0.32, 3.37 -0.36" stroke="#1e1e1e" stroke-width="1" fill="none"></path></g><g stroke-opacity="0" fill-opacity="0" stroke-linecap="round" transform="translate(1196.4853733848563 176.44427603175063) rotate(0 58.378661581835615 58.378661581835615)"><path d="M55.68 0.84 C64.37 -0.42, 75.39 1.72, 83.57 5.62 C91.75 9.51, 99.48 17.11, 104.75 24.24 C110.01 31.36, 113.8 39.59, 115.15 48.35 C116.51 57.11, 115.68 67.97, 112.9 76.78 C110.11 85.59, 104.9 94.99, 98.42 101.21 C91.95 107.43, 82.65 111.59, 74.04 114.08 C65.42 116.57, 55.65 117.9, 46.73 116.15 C37.8 114.41, 27.53 109.55, 20.51 103.62 C13.48 97.68, 8.06 89.04, 4.59 80.53 C1.12 72.02, -1 61.63, -0.3 52.57 C0.39 43.5, 3.65 33.68, 8.78 26.17 C13.91 18.66, 20.81 11.89, 30.45 7.52 C40.09 3.16, 59.25 0.74, 66.61 -0.02 C73.98 -0.78, 74.78 1.95, 74.62 2.97 M78.07 4.13 C86.41 6.49, 96.48 12.3, 102.65 18.94 C108.83 25.58, 113.11 35.34, 115.13 43.97 C117.16 52.6, 116.83 61.83, 114.79 70.72 C112.75 79.62, 108.65 90.53, 102.91 97.34 C97.17 104.14, 89.09 108.54, 80.36 111.55 C71.62 114.55, 59.8 116.06, 50.5 115.38 C41.19 114.71, 32.01 112.43, 24.52 107.48 C17.03 102.53, 9.66 93.94, 5.56 85.69 C1.47 77.45, -0.42 66.97, -0.08 58 C0.26 49.04, 3.32 40.01, 7.58 31.91 C11.84 23.81, 18.18 14.72, 25.46 9.4 C32.75 4.09, 42.35 0.9, 51.31 0.01 C60.27 -0.87, 74.76 3.07, 79.2 4.11 C83.65 5.14, 78.59 5.27, 77.99 6.22" stroke="#1e1e1e" stroke-width="1" fill="none"></path></g><g transform="translate(1205.4240706722585 253.18076322969227) rotate(0 49.439964294433594 12.5)"><text x="49.439964294433594" y="17.52" font-family="Virgil, Segoe UI Emoji" font-size="20px" fill="#1e1e1e" text-anchor="middle" style="white-space: pre;" direction="ltr" dominant-baseline="alphabetic">Database</text></g><g stroke-linecap="round"><g transform="translate(1229.9512194398326 209.52026774538854) rotate(0 21.45164646798804 11.061600613996632)"><path d="M0.56 -0.82 C0.73 4.06, 0.82 22.52, 0.97 28.13 C1.12 33.74, 0.23 31.37, 1.44 32.84 C2.65 34.31, 6.06 35.8, 8.23 36.96 C10.4 38.11, 11.55 39.24, 14.46 39.77 C17.36 40.3, 22.12 40.72, 25.67 40.16 C29.21 39.6, 33.26 37.63, 35.73 36.42 C38.2 35.21, 39.25 34.54, 40.49 32.88 C41.72 31.23, 42.7 30.19, 43.13 26.49 C43.56 22.78, 43.19 16.12, 43.07 10.63 C42.95 5.14, 42.64 -2.67, 42.4 -6.47 C42.16 -10.27, 42.58 -10.85, 41.64 -12.17 C40.7 -13.5, 39.3 -13.5, 36.78 -14.43 C34.26 -15.35, 30.28 -16.98, 26.55 -17.71 C22.82 -18.44, 17.95 -19.2, 14.38 -18.82 C10.81 -18.43, 7.39 -16.68, 5.13 -15.38 C2.88 -14.08, 1.56 -12.28, 0.86 -11.02 C0.15 -9.75, 1.12 -9.71, 0.9 -7.81 C0.68 -5.91, -0.43 -0.86, -0.47 0.39 M-0.61 1.37 C-0.5 6.53, 0.33 24.17, 0.53 29.58 C0.73 34.99, -0.82 32.52, 0.57 33.84 C1.97 35.15, 6.32 36.52, 8.89 37.5 C11.47 38.47, 13.03 39.43, 16.02 39.69 C19.01 39.94, 23.38 39.82, 26.82 39.02 C30.27 38.23, 34.02 35.95, 36.69 34.91 C39.35 33.87, 41.97 33.86, 42.83 32.77 C43.69 31.67, 41.67 32.09, 41.86 28.33 C42.05 24.57, 43.88 15.9, 43.98 10.21 C44.08 4.52, 42.56 -1.97, 42.46 -5.82 C42.36 -9.66, 44.38 -11.4, 43.39 -12.87 C42.41 -14.34, 39.49 -13.87, 36.55 -14.64 C33.61 -15.4, 29.46 -16.64, 25.76 -17.46 C22.07 -18.29, 17.72 -19.57, 14.39 -19.57 C11.05 -19.58, 8.25 -18.52, 5.76 -17.5 C3.28 -16.49, 0.43 -15.05, -0.52 -13.48 C-1.48 -11.91, -0.32 -10.46, 0.03 -8.07 C0.38 -5.68, 1.31 -0.72, 1.56 0.86" stroke="#1e1e1e" stroke-width="1" fill="none"></path></g></g><mask></mask><g stroke-linecap="round"><g transform="translate(1230.2795609674035 199.73218135861111) rotate(0 21.396922880059492 4.432610622211826)"><path d="M0.44 -0.08 C1.15 0.8, 1.98 3.51, 4.51 4.87 C7.03 6.22, 12 7.44, 15.57 8.04 C19.15 8.64, 22.5 8.82, 25.94 8.45 C29.38 8.08, 33.37 7.08, 36.22 5.83 C39.08 4.58, 42.01 1.71, 43.07 0.95 M0.01 -0.59 C0.62 0.38, 1.46 3.93, 4.03 5.42 C6.59 6.92, 11.79 7.83, 15.41 8.39 C19.04 8.94, 22.15 9.15, 25.77 8.74 C29.39 8.34, 34.37 7.35, 37.1 5.96 C39.84 4.57, 41.25 1.27, 42.19 0.41" stroke="#1e1e1e" stroke-width="1" fill="none"></path></g></g><mask></mask><g stroke-linecap="round"><g transform="translate(1229.9281605184951 208.99546150714332) rotate(0 21.396922880059492 4.432610622211826)"><path d="M-0.09 -0.28 C0.66 0.51, 2.5 3.25, 4.96 4.65 C7.42 6.05, 11.12 7.44, 14.67 8.12 C18.22 8.81, 22.59 9.17, 26.26 8.78 C29.94 8.39, 34.01 7.02, 36.72 5.77 C39.43 4.52, 41.47 2.13, 42.54 1.29 M-0.8 0.77 C-0.13 1.61, 1.96 3.8, 4.71 5.09 C7.46 6.38, 12.11 7.82, 15.7 8.51 C19.29 9.2, 22.84 9.68, 26.26 9.24 C29.67 8.8, 33.39 7.26, 36.19 5.87 C38.99 4.49, 41.81 1.63, 43.05 0.92" stroke="#1e1e1e" stroke-width="1" fill="none"></path></g></g><mask></mask><g stroke-linecap="round"><g transform="translate(1229.627340377947 215.7067066147306) rotate(0 21.396922880059492 4.432610622211826)"><path d="M0.36 -0.5 C1.05 0.34, 1.61 3.24, 4.05 4.73 C6.49 6.22, 11.2 7.79, 14.99 8.45 C18.77 9.12, 23.23 9.11, 26.76 8.72 C30.29 8.33, 33.46 7.44, 36.19 6.11 C38.92 4.77, 42.03 1.54, 43.15 0.71 M-0.12 0.44 C0.74 1.36, 2.56 3.79, 5 5.22 C7.44 6.65, 10.86 8.35, 14.53 9.01 C18.19 9.67, 23.26 9.59, 27.01 9.15 C30.77 8.71, 34.51 7.62, 37.06 6.38 C39.61 5.14, 41.27 2.69, 42.31 1.71" stroke="#1e1e1e" stroke-width="1" fill="none"></path></g></g><mask></mask><g transform="translate(489.21575763019257 186.74472984935755) rotate(0 115.81883541685598 12.5)"><text x="0" y="17.52" font-family="Virgil, Segoe UI Emoji" font-size="20px" fill="#1e1e1e" text-anchor="start" style="white-space: pre;" direction="ltr" dominant-baseline="alphabetic">POST /loging (request)</text></g><g transform="translate(134.29915464141345 208.2239497445919) rotate(0 84.55844197550718 35.061862255465485)"><text x="0" y="9.828541227452083" font-family="Virgil, Segoe UI Emoji" font-size="11.219795921748954px" fill="#1e1e1e" text-anchor="start" style="white-space: pre;" direction="ltr" dominant-baseline="alphabetic">credentials:</text><text x="0" y="23.853286129638278" font-family="Virgil, Segoe UI Emoji" font-size="11.219795921748954px" fill="#1e1e1e" text-anchor="start" style="white-space: pre;" direction="ltr" dominant-baseline="alphabetic">{   </text><text x="0" y="37.87803103182447" font-family="Virgil, Segoe UI Emoji" font-size="11.219795921748954px" fill="#1e1e1e" text-anchor="start" style="white-space: pre;" direction="ltr" dominant-baseline="alphabetic">    email: "JohnDoe@gmail.com"</text><text x="0" y="51.90277593401066" font-family="Virgil, Segoe UI Emoji" font-size="11.219795921748954px" fill="#1e1e1e" text-anchor="start" style="white-space: pre;" direction="ltr" dominant-baseline="alphabetic">    password: "admin123"</text><text x="0" y="65.92752083619685" font-family="Virgil, Segoe UI Emoji" font-size="11.219795921748954px" fill="#1e1e1e" text-anchor="start" style="white-space: pre;" direction="ltr" dominant-baseline="alphabetic">}</text></g><g stroke-linecap="round"><g transform="translate(312.05738075912575 239.03607011342592) rotate(0 32.677399021919456 -0.555386629105044)"><path d="M0.6 -0.31 C11.48 -0.39, 53.88 -0.41, 64.8 -0.69" stroke="#1e1e1e" stroke-width="2.5" fill="none" stroke-dasharray="1.5 8"></path></g><g transform="translate(312.05738075912575 239.03607011342592) rotate(0 32.677399021919456 -0.555386629105044)"><path d="M65.97 -1.2 L51.52 5.82 L50.63 -8.45 L65.51 0.1" stroke="none" stroke-width="0" fill="#f8f9fa" fill-rule="evenodd"></path><path d="M64.8 -0.69 C60.9 0.37, 58.31 3.71, 51.28 5.8 M51.28 5.8 C50.69 2.22, 50.19 -0.6, 51.14 -6.87 M51.14 -6.87 C55.35 -6.22, 56.94 -5.01, 64.8 -0.69 M64.8 -0.69 C64.8 -0.69, 64.8 -0.69, 64.8 -0.69" stroke="#1e1e1e" stroke-width="2.5" fill="none"></path></g></g><mask></mask><g transform="translate(516.23977754319 214.9272881618781) rotate(0 84.55844197550718 35.061862255465485)"><text x="0" y="9.828541227452083" font-family="Virgil, Segoe UI Emoji" font-size="11.219795921748954px" fill="#1e1e1e" text-anchor="start" style="white-space: pre;" direction="ltr" dominant-baseline="alphabetic">Body:</text><text x="0" y="23.853286129638278" font-family="Virgil, Segoe UI Emoji" font-size="11.219795921748954px" fill="#1e1e1e" text-anchor="start" style="white-space: pre;" direction="ltr" dominant-baseline="alphabetic">{   </text><text x="0" y="37.87803103182447" font-family="Virgil, Segoe UI Emoji" font-size="11.219795921748954px" fill="#1e1e1e" text-anchor="start" style="white-space: pre;" direction="ltr" dominant-baseline="alphabetic">    email: "JohnDoe@gmail.com",</text><text x="0" y="51.90277593401066" font-family="Virgil, Segoe UI Emoji" font-size="11.219795921748954px" fill="#1e1e1e" text-anchor="start" style="white-space: pre;" direction="ltr" dominant-baseline="alphabetic">    password: "admin123"</text><text x="0" y="65.92752083619685" font-family="Virgil, Segoe UI Emoji" font-size="11.219795921748954px" fill="#1e1e1e" text-anchor="start" style="white-space: pre;" direction="ltr" dominant-baseline="alphabetic">}</text></g><g stroke-linecap="round"><g transform="translate(442.0835226637099 239.7968128741354) rotate(0 31.06190889876578 0.24850301240513772)"><path d="M0.77 -0.83 C11.26 -0.81, 52.26 0.44, 62.4 0.56 M-0.28 1.35 C10.12 1.54, 51.45 2.21, 61.6 2.13" stroke="#1e1e1e" stroke-width="2" fill="none"></path></g><g transform="translate(442.0835226637099 239.7968128741354) rotate(0 31.06190889876578 0.24850301240513772)"><path d="M62.56 3.12 L48.57 6.94 L46.16 -3.3 L62.51 0.88" stroke="none" stroke-width="0" fill="#f8f9fa" fill-rule="evenodd"></path><path d="M61.6 2.13 C57.12 4.15, 54.78 4.77, 47.96 8.39 M61.6 2.13 C57.62 4.35, 54.69 5.69, 47.96 8.39 M47.96 8.39 C48.59 4.98, 48.94 2.91, 48.04 -4.29 M47.96 8.39 C48.4 5.68, 48.12 3.3, 48.04 -4.29 M48.04 -4.29 C52.3 -1.72, 54.19 -2.11, 61.6 2.13 M48.04 -4.29 C50.49 -2.98, 54.28 -1.78, 61.6 2.13 M61.6 2.13 C61.6 2.13, 61.6 2.13, 61.6 2.13 M61.6 2.13 C61.6 2.13, 61.6 2.13, 61.6 2.13" stroke="#1e1e1e" stroke-width="2" fill="none"></path></g></g><mask></mask><g stroke-linecap="round"><g transform="translate(696.5427660496414 239.7968462414417) rotate(0 50.94156596332033 0.4969893411572457)"><path d="M0.28 0.06 C17.04 0.26, 84.6 0.3, 101.38 0.37 M-1.04 -0.95 C15.46 -0.53, 82.77 1.17, 100.17 1.58" stroke="#1e1e1e" stroke-width="2" fill="none"></path></g><g transform="translate(696.5427660496414 239.7968462414417) rotate(0 50.94156596332033 0.4969893411572457)"><path d="M100.77 0.13 L84.54 8.58 L87.65 -6.34 L100.05 1" stroke="none" stroke-width="0" fill="#f8f9fa" fill-rule="evenodd"></path><path d="M100.17 1.58 C95.2 3.17, 89.34 4.81, 86.43 7.58 M100.17 1.58 C96.51 3.77, 92.7 4.55, 86.43 7.58 M86.43 7.58 C87.34 5.44, 85.25 1.13, 86.74 -5.09 M86.43 7.58 C86.53 3.37, 86.4 -1.35, 86.74 -5.09 M86.74 -5.09 C90.01 -4.23, 94.77 -1.77, 100.17 1.58 M86.74 -5.09 C91.39 -3.13, 96.73 -0.23, 100.17 1.58 M100.17 1.58 C100.17 1.58, 100.17 1.58, 100.17 1.58 M100.17 1.58 C100.17 1.58, 100.17 1.58, 100.17 1.58" stroke="#1e1e1e" stroke-width="2" fill="none"></path></g></g><mask></mask><g stroke-linecap="round"><g transform="translate(956.293654705457 181.40161725976373) rotate(0 68.98083311152706 14.469919277941699)"><path d="M-0.5 -0.62 C22.29 4.1, 114.09 23.29, 137.03 28.41 M1.44 1.66 C24.57 6.54, 116.23 25.22, 139.25 29.68" stroke="#1e1e1e" stroke-width="1" fill="none"></path></g><g transform="translate(956.293654705457 181.40161725976373) rotate(0 68.98083311152706 14.469919277941699)"><path d="M137.36 30.67 L125.59 31.98 L127.03 20.22 L137.37 28.68" stroke="none" stroke-width="0" fill="#f8f9fa" fill-rule="evenodd"></path><path d="M139.25 29.68 C133.76 29.59, 129.18 30.83, 124.67 33.23 M139.25 29.68 C133.07 30.95, 127.19 32.94, 124.67 33.23 M124.67 33.23 C124.02 29.24, 126.39 26.99, 127.15 20.8 M124.67 33.23 C125.18 29.32, 126.24 26.67, 127.15 20.8 M127.15 20.8 C130.39 23, 136.51 25.9, 139.25 29.68 M127.15 20.8 C131.15 23.53, 134.36 25.34, 139.25 29.68 M139.25 29.68 C139.25 29.68, 139.25 29.68, 139.25 29.68 M139.25 29.68 C139.25 29.68, 139.25 29.68, 139.25 29.68" stroke="#1e1e1e" stroke-width="1" fill="none"></path></g></g><mask></mask><g transform="translate(978.7383669188454 182.31739486306515) rotate(11.765800683587726 41.535811178759474 4.7227105103265785)"><text x="0" y="6.619351051273736" font-family="Virgil, Segoe UI Emoji" font-size="7.5563368165225295px" fill="#1e1e1e" text-anchor="start" style="white-space: pre;" direction="ltr" dominant-baseline="alphabetic">is this guy in the db?</text></g><g stroke-opacity="0" fill-opacity="0" stroke-linecap="round" transform="translate(1012.4976897232168 202.88734180039592) rotate(0 10.11355370328124 10.11355370328124)"><path d="M9.87 -0.3 C11.93 -0.44, 15.08 0.7, 16.7 2.15 C18.32 3.61, 19.11 6.33, 19.58 8.46 C20.04 10.58, 20.49 13.03, 19.48 14.91 C18.48 16.79, 15.68 18.93, 13.53 19.73 C11.37 20.54, 8.5 20.44, 6.56 19.74 C4.62 19.05, 2.88 17.38, 1.87 15.56 C0.85 13.74, 0.15 11.01, 0.45 8.84 C0.75 6.66, 2.08 4.06, 3.66 2.51 C5.24 0.96, 8.87 -0.01, 9.93 -0.48 C10.99 -0.95, 9.98 -0.56, 10.01 -0.29 M8.02 0.44 C10.05 -0.08, 12.67 0.59, 14.53 1.7 C16.39 2.82, 18.42 5.21, 19.16 7.12 C19.91 9.02, 19.54 11.17, 18.99 13.15 C18.44 15.14, 17.49 17.82, 15.85 19.01 C14.22 20.2, 11.35 20.56, 9.18 20.31 C7 20.06, 4.45 19.25, 2.82 17.53 C1.19 15.82, -0.51 12.28, -0.62 10.03 C-0.74 7.78, 0.57 5.62, 2.13 4.02 C3.69 2.41, 7.72 1.11, 8.74 0.39 C9.76 -0.33, 8.31 -0.47, 8.25 -0.29" stroke="none" stroke-width="0" fill="#b2f2bb"></path><path d="M9.63 -0.32 C11.66 -0.49, 14.79 0.61, 16.58 2.06 C18.37 3.51, 20.04 6.26, 20.37 8.36 C20.69 10.47, 19.59 12.78, 18.54 14.69 C17.48 16.59, 15.99 18.94, 14.04 19.79 C12.09 20.64, 8.92 20.53, 6.84 19.79 C4.75 19.04, 2.72 17.15, 1.53 15.33 C0.34 13.51, -0.63 10.94, -0.29 8.86 C0.05 6.78, 1.88 4.41, 3.56 2.87 C5.24 1.32, 8.67 0.07, 9.79 -0.43 C10.91 -0.93, 10.17 -0.31, 10.28 -0.14 M10.3 0.13 C12.41 -0.1, 14.99 0.27, 16.64 1.54 C18.29 2.81, 19.76 5.5, 20.21 7.76 C20.66 10.02, 20.4 13, 19.33 15.08 C18.26 17.16, 15.93 19.4, 13.79 20.23 C11.64 21.06, 8.6 20.88, 6.47 20.08 C4.34 19.27, 1.99 17.22, 0.99 15.39 C-0.01 13.56, 0.03 11.31, 0.46 9.09 C0.89 6.87, 2.13 3.52, 3.56 2.07 C4.99 0.62, 7.95 0.77, 9.04 0.38 C10.13 -0.01, 9.98 -0.33, 10.09 -0.26" stroke="#2f9e44" stroke-width="1" fill="none"></path></g><g stroke-linecap="round"><g transform="translate(1027.7207965137795 205.19137455375585) rotate(0 -5.355689631119645 5.871034705328668)" fill-rule="evenodd"><path d="M-1.17 0.88 C-2.22 2.38, -6.63 6.58, -7.7 7.94 C-8.76 9.3, -7.39 9.23, -7.55 9.05 C-7.71 8.88, -8.23 7.59, -8.65 6.88 C-9.06 6.16, -9.86 4.52, -10.03 4.77 C-10.21 5.02, -10.08 7.14, -9.71 8.39 C-9.34 9.64, -8.38 11.52, -7.8 12.26 C-7.23 13, -7.04 14.18, -6.25 12.84 C-5.46 11.5, -3.9 6.41, -3.06 4.24 C-2.22 2.06, -1.85 0.36, -1.21 -0.22" stroke="none" stroke-width="0" fill="#b2f2bb" fill-rule="evenodd"></path><path d="M-0.07 0.38 C-1.09 1.63, -5.23 6.37, -6.52 8.01 C-7.81 9.64, -7.24 10.38, -7.81 10.21 C-8.39 10.04, -9.54 7.77, -9.96 6.99 C-10.38 6.21, -10.28 5.17, -10.35 5.52 C-10.42 5.87, -10.76 8.07, -10.38 9.09 C-10 10.1, -8.83 11.24, -8.08 11.6 C-7.34 11.95, -6.91 12.64, -5.9 11.22 C-4.89 9.79, -3.05 4.9, -2.04 3.06 C-1.02 1.23, -0.2 0.8, 0.19 0.22 M-0.77 0.1 C-1.58 1.66, -4.45 7.09, -5.43 8.61 C-6.41 10.14, -5.93 9.7, -6.68 9.27 C-7.42 8.84, -9.21 6.67, -9.91 6.02 C-10.6 5.38, -10.84 4.97, -10.83 5.42 C-10.82 5.87, -10.38 7.79, -9.85 8.71 C-9.32 9.62, -8.21 10.52, -7.63 10.91 C-7.04 11.31, -7.4 12.24, -6.33 11.06 C-5.26 9.89, -2.37 5.7, -1.2 3.87 C-0.04 2.05, 0.34 0.81, 0.64 0.12" stroke="#2f9e44" stroke-width="1" fill="none"></path></g></g><mask></mask><g stroke-linecap="round"><g transform="translate(1093.835591165285 272.7317729732333) rotate(0 -67.09093447269515 7.949868774069614)"><path d="M-0.61 -0.38 C-23.08 2.22, -112.66 13.58, -134.96 16.44 M1.26 -1.63 C-20.8 0.54, -109.89 11.85, -132.65 14.6" stroke="#1e1e1e" stroke-width="1" fill="none"></path></g><g transform="translate(1093.835591165285 272.7317729732333) rotate(0 -67.09093447269515 7.949868774069614)"><path d="M-132.92 15.74 L-121.42 7.01 L-119.61 20.61 L-132.64 12.88" stroke="none" stroke-width="0" fill="#f8f9fa" fill-rule="evenodd"></path><path d="M-132.65 14.6 C-129.54 11.41, -124.74 9.8, -119.94 6.64 M-132.65 14.6 C-128.28 12.02, -122.83 8.62, -119.94 6.64 M-119.94 6.64 C-120.45 11.02, -118.47 15.22, -118.38 19.22 M-119.94 6.64 C-120.17 9.71, -119.94 12, -118.38 19.22 M-118.38 19.22 C-122.3 18.59, -127.95 17.02, -132.65 14.6 M-118.38 19.22 C-122.36 18.77, -126.6 17.12, -132.65 14.6 M-132.65 14.6 C-132.65 14.6, -132.65 14.6, -132.65 14.6 M-132.65 14.6 C-132.65 14.6, -132.65 14.6, -132.65 14.6" stroke="#1e1e1e" stroke-width="1" fill="none"></path></g></g><mask></mask><g stroke-linecap="round"><g transform="translate(1093.3894661939137 210.62498211408615) rotate(0 -67.83192511450497 12.270514763743677)"><path d="M-0.78 0.54 C-23.32 4.83, -113.55 21.59, -135.9 25.39 M1.02 -0.22 C-21.65 3.77, -114.27 19.67, -136.97 23.72" stroke="#1e1e1e" stroke-width="1" fill="none"></path></g><g transform="translate(1093.3894661939137 210.62498211408615) rotate(0 -67.83192511450497 12.270514763743677)"><path d="M-138.46 24.09 L-125.9 16.52 L-122.48 25.91 L-135.25 25.5" stroke="none" stroke-width="0" fill="#f8f9fa" fill-rule="evenodd"></path><path d="M-136.97 23.72 C-133.21 21.36, -129.76 20.52, -124.67 15.14 M-136.97 23.72 C-134.03 21.76, -131.91 20.24, -124.67 15.14 M-124.67 15.14 C-123.67 19.28, -124.63 20.89, -122.49 27.63 M-124.67 15.14 C-124.82 17.95, -123.78 20.6, -122.49 27.63 M-122.49 27.63 C-129.1 26.65, -133.79 25.32, -136.97 23.72 M-122.49 27.63 C-127.82 26.81, -132.64 25.08, -136.97 23.72 M-136.97 23.72 C-136.97 23.72, -136.97 23.72, -136.97 23.72 M-136.97 23.72 C-136.97 23.72, -136.97 23.72, -136.97 23.72" stroke="#1e1e1e" stroke-width="1" fill="none"></path></g></g><mask></mask><g stroke-linecap="round"><g transform="translate(958.3924101731502 171.01732261127927) rotate(0 0 61.594989282584834)"><path d="M-0.24 0.85 C0.02 21.09, 0.83 101.54, 0.79 122 M-1.82 0.25 C-1.58 20.55, 0.2 102.71, 0.26 122.91" stroke="#1e1e1e" stroke-width="1" fill="none"></path></g></g><mask></mask><g stroke-linecap="round"><g transform="translate(1095.5393635822193 170.4389474354) rotate(0 0 61.672576592413975)"><path d="M0.79 -1.19 C0.75 19.29, -0.45 103.03, -0.47 123.74 M-0.25 0.8 C-0.47 20.83, -1.75 101.26, -1.66 121.82" stroke="#1e1e1e" stroke-width="1" fill="none"></path></g></g><mask></mask><g stroke-linecap="round"><g transform="translate(958.4455572495422 235.42824965388263) rotate(0 68.11849709926855 18.45165156802659)"><path d="M-0.47 0.39 C22.23 6.69, 114.13 30.51, 136.94 36.59 M1.49 -0.44 C24.02 6.13, 114 31.52, 136.36 37.97" stroke="#1e1e1e" stroke-width="1" fill="none"></path></g><g transform="translate(958.4455572495422 235.42824965388263) rotate(0 68.11849709926855 18.45165156802659)"><path d="M138.09 39.75 L121.69 38.88 L125.97 26.48 L136.43 39.31" stroke="none" stroke-width="0" fill="#f8f9fa" fill-rule="evenodd"></path><path d="M136.36 37.97 C131.41 39.66, 125.11 39.83, 121.55 40.34 M136.36 37.97 C132.17 38.86, 127.88 38.65, 121.55 40.34 M121.55 40.34 C123.05 36.63, 122.93 35.09, 125.03 28.14 M121.55 40.34 C122.57 36.85, 123.34 34.17, 125.03 28.14 M125.03 28.14 C130.36 30.41, 133.37 33.67, 136.36 37.97 M125.03 28.14 C128.55 30.36, 130.87 34.1, 136.36 37.97 M136.36 37.97 C136.36 37.97, 136.36 37.97, 136.36 37.97 M136.36 37.97 C136.36 37.97, 136.36 37.97, 136.36 37.97" stroke="#1e1e1e" stroke-width="1" fill="none"></path></g></g><mask></mask><g transform="translate(987.6752701760598 243.83752730762035) rotate(14.931443780900237 49.42688067618525 4.7227105103265785)"><text x="0" y="6.619351051273736" font-family="Virgil, Segoe UI Emoji" font-size="7.5563368165225295px" fill="#1e1e1e" text-anchor="start" style="white-space: pre;" direction="ltr" dominant-baseline="alphabetic">is his password correct?</text></g><g stroke-opacity="0" fill-opacity="0" stroke-linecap="round" transform="translate(1010.9833508846903 260.9187372126719) rotate(0 10.11355370328124 10.11355370328124)"><path d="M10.92 -0.07 C12.92 -0.2, 15.42 0.81, 16.92 2.22 C18.42 3.62, 19.63 6.11, 19.93 8.36 C20.23 10.62, 19.92 13.92, 18.71 15.75 C17.51 17.58, 14.74 18.75, 12.69 19.35 C10.64 19.96, 8.34 20.21, 6.43 19.4 C4.53 18.58, 2.25 16.43, 1.27 14.47 C0.3 12.51, 0.04 9.78, 0.58 7.63 C1.12 5.48, 2.74 2.79, 4.49 1.57 C6.24 0.36, 9.84 0.5, 11.07 0.35 C12.3 0.2, 11.85 0.54, 11.87 0.68 M12.41 0.46 C14.65 0.9, 17.58 2.68, 18.9 4.27 C20.22 5.87, 20.56 7.85, 20.34 10.02 C20.12 12.2, 19.12 15.71, 17.59 17.32 C16.05 18.93, 13.43 19.38, 11.14 19.7 C8.86 20.01, 5.75 20.26, 3.89 19.19 C2.03 18.11, 0.52 15.43, -0.03 13.25 C-0.57 11.07, -0.23 8.1, 0.61 6.1 C1.45 4.11, 3.08 2.33, 5.01 1.27 C6.93 0.21, 11.01 -0.22, 12.18 -0.26 C13.34 -0.3, 11.92 0.85, 11.98 1.01" stroke="none" stroke-width="0" fill="#b2f2bb"></path><path d="M9.67 0.3 C11.72 -0.06, 14.04 0.36, 15.7 1.54 C17.35 2.72, 18.99 5.27, 19.61 7.38 C20.23 9.48, 20.36 12.17, 19.44 14.16 C18.52 16.16, 16.17 18.35, 14.09 19.35 C12.01 20.36, 9.04 20.76, 6.98 20.18 C4.93 19.61, 3 17.76, 1.78 15.92 C0.56 14.08, -0.53 11.29, -0.33 9.13 C-0.13 6.97, 1.25 4.51, 2.98 2.97 C4.71 1.44, 8.75 0.44, 10.05 -0.09 C11.35 -0.61, 10.78 -0.27, 10.8 -0.15 M10.01 -0.54 C11.88 -0.73, 13.92 1.18, 15.65 2.53 C17.37 3.88, 19.8 5.54, 20.35 7.56 C20.91 9.58, 20.18 12.74, 18.99 14.66 C17.79 16.59, 15.2 18.21, 13.18 19.12 C11.16 20.04, 8.9 20.74, 6.87 20.15 C4.83 19.56, 2.17 17.42, 0.97 15.59 C-0.23 13.77, -0.76 11.48, -0.36 9.21 C0.04 6.93, 1.57 3.36, 3.37 1.94 C5.16 0.52, 9.35 1.06, 10.43 0.68 C11.51 0.3, 9.88 -0.29, 9.84 -0.34" stroke="#2f9e44" stroke-width="1" fill="none"></path></g><g stroke-linecap="round"><g transform="translate(1026.206457675253 263.2227699660318) rotate(0 -5.355689631119645 5.871034705328668)" fill-rule="evenodd"><path d="M-1.16 0.74 C-2.36 1.8, -6.53 6.29, -7.44 7.96 C-8.36 9.64, -6.35 11.19, -6.67 10.77 C-6.99 10.34, -8.43 6.06, -9.36 5.41 C-10.29 4.77, -12.25 6.47, -12.26 6.88 C-12.27 7.29, -10.05 7.15, -9.42 7.88 C-8.8 8.61, -8.83 10.85, -8.51 11.27 C-8.19 11.69, -8.57 11.54, -7.5 10.4 C-6.44 9.26, -3.17 6.11, -2.12 4.43 C-1.07 2.75, -1.4 0.85, -1.21 0.3" stroke="none" stroke-width="0" fill="#b2f2bb" fill-rule="evenodd"></path><path d="M-0.14 -0.43 C-1.16 0.96, -4.87 6.74, -6.04 8.4 C-7.21 10.05, -6.43 9.86, -7.14 9.5 C-7.86 9.14, -9.67 6.75, -10.33 6.23 C-10.99 5.71, -11.05 5.93, -11.11 6.36 C-11.16 6.8, -11.1 7.98, -10.66 8.83 C-10.21 9.67, -9.29 11.02, -8.44 11.44 C-7.59 11.85, -6.69 12.7, -5.56 11.31 C-4.43 9.91, -2.62 4.97, -1.67 3.06 C-0.72 1.15, -0.16 0.31, 0.15 -0.17 M0.79 0.53 C-0.29 1.76, -5.02 5.99, -6.37 7.54 C-7.73 9.1, -6.65 10.03, -7.33 9.86 C-8.01 9.7, -9.97 7.07, -10.46 6.54 C-10.96 6.02, -10.34 6.4, -10.31 6.69 C-10.28 6.99, -10.63 7.37, -10.27 8.31 C-9.91 9.25, -8.9 11.85, -8.16 12.33 C-7.42 12.82, -6.79 12.61, -5.82 11.2 C-4.85 9.79, -3.38 5.82, -2.31 3.87 C-1.25 1.93, 0.12 0.06, 0.58 -0.47" stroke="#2f9e44" stroke-width="1" fill="none"></path></g></g><mask></mask><g stroke-linecap="round"><g transform="translate(856.4356776689257 241.32401317684912) rotate(0 38.44292748498361 0.1614107860376066)"><path d="M0.42 0.47 C13.4 0.52, 65 -0.52, 77.57 -0.68 M-0.81 -0.33 C12.09 -0.08, 63.81 0.21, 76.98 0.33" stroke="#1e1e1e" stroke-width="2" fill="none"></path></g><g transform="translate(856.4356776689257 241.32401317684912) rotate(0 38.44292748498361 0.1614107860376066)"><path d="M77.37 1.73 L63.91 7.8 L63.12 -6.39 L75.05 -0.53" stroke="none" stroke-width="0" fill="#f8f9fa" fill-rule="evenodd"></path><path d="M76.98 0.33 C73.77 2.94, 68.18 2.51, 63.34 6.57 M76.98 0.33 C73.08 1.75, 70.53 2.9, 63.34 6.57 M63.34 6.57 C62.34 2.19, 62.99 -2.44, 63.43 -6.11 M63.34 6.57 C62.94 2.65, 62.95 -1.92, 63.43 -6.11 M63.43 -6.11 C67.1 -5.32, 73.64 -0.98, 76.98 0.33 M63.43 -6.11 C65.94 -4.91, 69.76 -2.58, 76.98 0.33 M76.98 0.33 C76.98 0.33, 76.98 0.33, 76.98 0.33 M76.98 0.33 C76.98 0.33, 76.98 0.33, 76.98 0.33" stroke="#1e1e1e" stroke-width="2" fill="none"></path></g></g><mask></mask><g stroke-linecap="round" transform="translate(941.1584799084475 151.41034941039084) rotate(0 86.06234220092924 82.67997720334455)"><path d="M0 0 C56.05 -2.71, 114.1 -2.41, 172.12 0 M172.12 0 C170.54 57.35, 172.12 117.26, 172.12 165.36 M172.12 165.36 C112.72 166.58, 55.2 165.49, 0 165.36 M0 165.36 C-0.3 99.06, 2.14 34.28, 0 0" stroke="#1e1e1e" stroke-width="2.5" fill="none" stroke-dasharray="8 10"></path></g><g stroke-linecap="round"><g transform="translate(1123.3966573590017 244.5842492509389) rotate(0 32.16089651979729 0)"><path d="M0 0 C21.62 -0.88, 46.97 -1.22, 64.32 0 M0 0 C19.09 0.53, 37.13 -0.44, 64.32 0" stroke="#1e1e1e" stroke-width="2" fill="none"></path></g><g transform="translate(1123.3966573590017 244.5842492509389) rotate(0 32.16089651979729 0)"><path d="M-0.31 -0.28 L11.57 -7.4 L11.73 6.55 L0.61 -1.62" stroke="none" stroke-width="0" fill="#f8f9fa" fill-rule="evenodd"></path><path d="M0 0 C3.87 -3.29, 10.49 -5.89, 13.5 -6.54 M0 0 C4.41 -1.66, 8.02 -4.25, 13.5 -6.54 M13.5 -6.54 C13.92 -2.61, 14.84 0.87, 13.69 6.13 M13.5 -6.54 C13.78 -1.85, 13.73 1.75, 13.69 6.13 M13.69 6.13 C9.91 4.84, 7.59 2.26, 0 0 M13.69 6.13 C9.72 4.82, 6.39 3.66, 0 0 M0 0 C0 0, 0 0, 0 0 M0 0 C0 0, 0 0, 0 0" stroke="#1e1e1e" stroke-width="2" fill="none"></path></g><g transform="translate(1123.3966573590017 244.5842492509389) rotate(0 32.16089651979729 0)"><path d="M64.01 -0.28 L48.78 5.42 L48.79 -5.98 L64.93 -1.62" stroke="none" stroke-width="0" fill="#f8f9fa" fill-rule="evenodd"></path><path d="M64.32 0 C58.41 1.05, 55.35 3.03, 50.7 6.28 M64.32 0 C60.98 1.85, 56.85 2.92, 50.7 6.28 M50.7 6.28 C51.16 1.9, 52.03 -2.94, 50.75 -6.4 M50.7 6.28 C51.12 2.22, 51.02 -2.93, 50.75 -6.4 M50.75 -6.4 C52.64 -5.23, 55.93 -5.23, 64.32 0 M50.75 -6.4 C53.58 -4.73, 57.07 -2.75, 64.32 0 M64.32 0 C64.32 0, 64.32 0, 64.32 0 M64.32 0 C64.32 0, 64.32 0, 64.32 0" stroke="#1e1e1e" stroke-width="2" fill="none"></path></g></g><mask></mask><g transform="translate(921.2649722242314 107.71482984926206) rotate(0 111.86231852108091 12.5)"><text x="0" y="17.52" font-family="Virgil, Segoe UI Emoji" font-size="20px" fill="#1e1e1e" text-anchor="start" style="white-space: pre;" direction="ltr" dominant-baseline="alphabetic">Normal AuthService</text></g><g stroke-opacity="0" fill-opacity="0" stroke-linecap="round" transform="translate(351.8154978900086 376.03957736539496) rotate(0 58.378661581835615 58.378661581835615)"><path d="M56.95 0.44 C65.47 -0.74, 75.25 2.27, 83.29 6.24 C91.33 10.22, 99.66 17.06, 105.18 24.28 C110.71 31.5, 114.88 40.82, 116.43 49.58 C117.98 58.35, 117.45 68.42, 114.5 76.87 C111.55 85.31, 105.52 93.88, 98.73 100.26 C91.94 106.64, 82.48 112.56, 73.77 115.14 C65.06 117.72, 55.4 117.88, 46.46 115.72 C37.53 113.56, 27.09 107.96, 20.16 102.18 C13.23 96.39, 8.3 89.24, 4.88 81.02 C1.46 72.81, -1.08 62.11, -0.37 52.87 C0.34 43.64, 4.2 33.2, 9.15 25.61 C14.11 18.01, 20.74 11.7, 29.34 7.32 C37.95 2.93, 55.04 0.38, 60.76 -0.71 C66.49 -1.8, 63.69 -0.31, 63.68 0.78 M34.15 4.22 C41.5 -0.58, 53.18 -2, 62.2 -1.17 C71.22 -0.33, 80.57 4.21, 88.28 9.22 C95.98 14.22, 103.63 21.18, 108.42 28.88 C113.22 36.57, 116.53 46.56, 117.05 55.37 C117.57 64.18, 115.51 73.74, 111.55 81.75 C107.58 89.76, 100.54 97.72, 93.26 103.43 C85.97 109.15, 76.4 114.44, 67.83 116.04 C59.27 117.64, 50.48 115.58, 41.86 113.02 C33.24 110.46, 22.65 106.76, 16.12 100.69 C9.58 94.62, 5.32 85.18, 2.65 76.61 C-0.02 68.03, -1.37 57.98, 0.1 49.24 C1.57 40.49, 6.05 31.52, 11.47 24.15 C16.89 16.78, 28.62 7.88, 32.61 5.02 C36.6 2.15, 34.59 5.94, 35.41 6.94" stroke="#1e1e1e" stroke-width="1" fill="none"></path></g><g stroke-linecap="round" transform="translate(381.58104341778744 393.33307987351463) rotate(0 29.070519330231733 19.380346220154536)"><path d="M9.69 0 C16.76 1.49, 26.39 0.85, 48.45 0 M9.69 0 C18.61 0.44, 26.62 1.11, 48.45 0 M48.45 0 C53.49 0.9, 56.67 2.97, 58.14 9.69 M48.45 0 C56.02 1.13, 58.83 1.57, 58.14 9.69 M58.14 9.69 C57.03 13.56, 57.68 15.85, 58.14 29.07 M58.14 9.69 C57.4 14.72, 57.52 20.06, 58.14 29.07 M58.14 29.07 C58.15 33.81, 56.64 40.55, 48.45 38.76 M58.14 29.07 C58.3 33.86, 56 36.85, 48.45 38.76 M48.45 38.76 C38.1 39.41, 26.18 38.53, 9.69 38.76 M48.45 38.76 C36.39 38.8, 26.59 37.78, 9.69 38.76 M9.69 38.76 C1.53 39.75, -0.15 36.16, 0 29.07 M9.69 38.76 C2.02 40.26, -1.08 37.76, 0 29.07 M0 29.07 C0.77 26.5, 0.53 21.84, 0 9.69 M0 29.07 C0.09 21.67, 1.02 14.04, 0 9.69 M0 9.69 C0.36 1.36, 3.57 0.67, 9.69 0 M0 9.69 C-0.38 1.8, 1.24 1.94, 9.69 0" stroke="#1e1e1e" stroke-width="1" fill="none"></path></g><g stroke-linecap="round" transform="translate(376.0357345634193 436.4080451903387) rotate(0 34.15842490842492 4.675677934232965)"><path d="M2.34 0 C21.25 0.18, 39.03 0.05, 65.98 0 M2.34 0 C19.35 0.4, 36.18 0.13, 65.98 0 M65.98 0 C66.8 -0.13, 68.8 1.27, 68.32 2.34 M65.98 0 C67.88 -0.83, 67.23 1.35, 68.32 2.34 M68.32 2.34 C68.23 3.73, 68.19 5.54, 68.32 7.01 M68.32 2.34 C68.23 4.09, 68.3 5.57, 68.32 7.01 M68.32 7.01 C69.18 9.47, 67.61 8.62, 65.98 9.35 M68.32 7.01 C68.86 7.61, 67.57 10.12, 65.98 9.35 M65.98 9.35 C46.24 9.29, 25.13 8.48, 2.34 9.35 M65.98 9.35 C49.78 9.01, 32.85 9.67, 2.34 9.35 M2.34 9.35 C0.7 9.66, -0.52 9.22, 0 7.01 M2.34 9.35 C0.24 10.47, -1.1 8.34, 0 7.01 M0 7.01 C0.05 5.42, 0.21 3.47, 0 2.34 M0 7.01 C0.11 5.87, 0.02 4.56, 0 2.34 M0 2.34 C0.17 1.12, 0.61 -0.62, 2.34 0 M0 2.34 C-0.99 1.75, 0.09 0.38, 2.34 0" stroke="#1e1e1e" stroke-width="1" fill="none"></path></g><g stroke-linecap="round" transform="translate(426.4035421695121 439.83248536752376) rotate(0 6.120820957724533 1.1798952533570173)"><path d="M0.59 0 C4.28 0.13, 8.68 0.18, 11.65 0 M0.59 0 C4.06 0.07, 7.72 -0.09, 11.65 0 M11.65 0 C12.53 0.49, 12.54 -0.53, 12.24 0.59 M11.65 0 C10.96 0.57, 12.77 -0.52, 12.24 0.59 M12.24 0.59 C12.21 0.93, 12.27 1.24, 12.24 1.77 M12.24 0.59 C12.24 0.94, 12.26 1.37, 12.24 1.77 M12.24 1.77 C12.31 1.44, 12.52 1.53, 11.65 2.36 M12.24 1.77 C12.28 2.93, 12.27 3.16, 11.65 2.36 M11.65 2.36 C7.94 1.82, 4.14 1.81, 0.59 2.36 M11.65 2.36 C7.87 2.45, 4.53 2.4, 0.59 2.36 M0.59 2.36 C-0.33 3.01, -0.47 3.13, 0 1.77 M0.59 2.36 C-0.9 2.13, 0.67 2.6, 0 1.77 M0 1.77 C0.05 1.28, -0.03 0.89, 0 0.59 M0 1.77 C0 1.36, 0 1.01, 0 0.59 M0 0.59 C-0.17 -0.42, -0.67 0.85, 0.59 0 M0 0.59 C-0.69 0.58, -0.14 0.02, 0.59 0" stroke="#1e1e1e" stroke-width="1" fill="none"></path></g><g stroke-linecap="round" transform="translate(404.7154210473418 432.698234998388) rotate(0 6.120820957724533 1.1798952533570173)"><path d="M0.59 0 C4.19 0.19, 8.32 -0.11, 11.65 0 M0.59 0 C4.8 -0.06, 9.56 0.11, 11.65 0 M11.65 0 C12.35 -0.72, 11.3 0.69, 12.24 0.59 M11.65 0 C12.57 -0.72, 12.17 -0.14, 12.24 0.59 M12.24 0.59 C12.27 0.79, 12.25 1.04, 12.24 1.77 M12.24 0.59 C12.27 1.05, 12.24 1.44, 12.24 1.77 M12.24 1.77 C12.71 1.33, 12.08 3.03, 11.65 2.36 M12.24 1.77 C12.47 2.97, 12.37 3.07, 11.65 2.36 M11.65 2.36 C8.27 1.76, 5.48 2.48, 0.59 2.36 M11.65 2.36 C9.21 2.47, 6.66 2.57, 0.59 2.36 M0.59 2.36 C-0.27 3.33, -0.96 1.97, 0 1.77 M0.59 2.36 C0.87 2.79, 0.82 2.46, 0 1.77 M0 1.77 C-0.03 1.37, 0.01 1.03, 0 0.59 M0 1.77 C0 1.4, -0.01 0.99, 0 0.59 M0 0.59 C-0.86 1.04, -0.4 0.33, 0.59 0 M0 0.59 C-0.34 0.22, -0.7 0.31, 0.59 0" stroke="#1e1e1e" stroke-width="1" fill="none"></path></g><g stroke-linecap="round" transform="translate(386.57421106647257 397.81730594397027) rotate(0 24.11446288866233 15.125362843360563)"><path d="M7.56 0 C19.05 -0.47, 31.27 -1.54, 40.67 0 M7.56 0 C19.47 0.54, 30.72 -0.68, 40.67 0 M40.67 0 C43.82 0.99, 49.14 1.27, 48.23 7.56 M40.67 0 C45.57 -0.66, 46.07 1.37, 48.23 7.56 M48.23 7.56 C48.59 10.97, 49.36 16.24, 48.23 22.69 M48.23 7.56 C48.41 10.25, 48.72 13.41, 48.23 22.69 M48.23 22.69 C48.29 29.07, 46.11 31.65, 40.67 30.25 M48.23 22.69 C48.89 29.14, 45.35 29.93, 40.67 30.25 M40.67 30.25 C34.34 30.54, 25.55 28.23, 7.56 30.25 M40.67 30.25 C28.57 31.01, 17.06 31.33, 7.56 30.25 M7.56 30.25 C0.61 29.86, 1.17 28.49, 0 22.69 M7.56 30.25 C4.17 30.84, 0.82 29.89, 0 22.69 M0 22.69 C0.44 20.75, 0.44 16.41, 0 7.56 M0 22.69 C-0.15 19.09, -0.68 17.08, 0 7.56 M0 7.56 C-1.19 3.19, 1.93 0.03, 7.56 0 M0 7.56 C-1.8 3.14, 1.63 -1.64, 7.56 0" stroke="#1e1e1e" stroke-width="1" fill="none"></path></g><g transform="translate(383.1441869376645 450.5033980209462) rotate(0 27.049972534179688 12.5)"><text x="27.049972534179688" y="17.52" font-family="Virgil, Segoe UI Emoji" font-size="20px" fill="#1e1e1e" text-anchor="middle" style="white-space: pre;" direction="ltr" dominant-baseline="alphabetic">Client</text></g><g stroke-linecap="round"><g transform="translate(408.7205868559098 303.21433966712016) rotate(0 0 39.86148009080398)"><path d="M0 0 C1.7 21.05, 0.53 46, 0 79.72 M0 0 C-0.7 28.35, 0.7 55.08, 0 79.72" stroke="#1e1e1e" stroke-width="2" fill="none"></path></g></g><mask></mask><g stroke-linecap="round"><g transform="translate(1031.006037699406 329.14286503486824) rotate(0 -28.240690378281045 40.63955114678157)"><path d="M0 0 C0.1 19.58, 1.35 37.82, 0 81.28 M0 0 C-0.31 17.89, -0.83 36.74, 0 81.28 M0 81.28 C-10.5 79.58, -22.91 79.69, -56.48 80.59 M0 81.28 C-20 81.43, -41.65 79.55, -56.48 80.59" stroke="#1e1e1e" stroke-width="2" fill="none"></path></g><g transform="translate(1031.006037699406 329.14286503486824) rotate(0 -28.240690378281045 40.63955114678157)"><path d="M-55.05 81.1 L-42.3 75.87 L-44.44 85.69 L-56.64 81.07" stroke="none" stroke-width="0" fill="#f8f9fa" fill-rule="evenodd"></path><path d="M-56.48 80.59 C-53.62 79.9, -49.6 78.12, -43.01 74 M-56.48 80.59 C-53.01 78.55, -50.33 77.3, -43.01 74 M-43.01 74 C-42.3 75.67, -42.74 78.44, -42.77 86.67 M-43.01 74 C-42.37 79.25, -42.79 82.9, -42.77 86.67 M-42.77 86.67 C-46.47 84.86, -51.19 82.88, -56.48 80.59 M-42.77 86.67 C-48.44 84.13, -53.41 82.41, -56.48 80.59 M-56.48 80.59 C-56.48 80.59, -56.48 80.59, -56.48 80.59 M-56.48 80.59 C-56.48 80.59, -56.48 80.59, -56.48 80.59" stroke="#1e1e1e" stroke-width="2" fill="none"></path></g></g><mask></mask><g transform="translate(486.554753151867 321.1710527457608) rotate(0 121.97684072044974 12.5)"><text x="0" y="17.52" font-family="Virgil, Segoe UI Emoji" font-size="20px" fill="#1e1e1e" text-anchor="start" style="white-space: pre;" direction="ltr" dominant-baseline="alphabetic">POST /loging (response)</text></g><g stroke-linecap="round"><g transform="translate(473.1415828489563 298.35119274032127) rotate(0 124.98807716220807 0)"><path d="M0 0 C85.87 -2.15, 174.92 0.13, 249.98 0 M0 0 C58.61 0.18, 118.65 1.05, 249.98 0" stroke="#1e1e1e" stroke-width="2" fill="none"></path></g></g><mask></mask><g transform="translate(505.35158511342763 361.7295556796156) rotate(0 103.05128969984787 70.12372451093103)"><text x="0" y="9.828541227452083" font-family="Virgil, Segoe UI Emoji" font-size="11.219795921748954px" fill="#1e1e1e" text-anchor="start" style="white-space: pre;" direction="ltr" dominant-baseline="alphabetic">Body:</text><text x="0" y="23.853286129638278" font-family="Virgil, Segoe UI Emoji" font-size="11.219795921748954px" fill="#1e1e1e" text-anchor="start" style="white-space: pre;" direction="ltr" dominant-baseline="alphabetic">{   </text><text x="0" y="37.87803103182447" font-family="Virgil, Segoe UI Emoji" font-size="11.219795921748954px" fill="#1e1e1e" text-anchor="start" style="white-space: pre;" direction="ltr" dominant-baseline="alphabetic">accesToken:</text><text x="0" y="51.90277593401066" font-family="Virgil, Segoe UI Emoji" font-size="11.219795921748954px" fill="#1e1e1e" text-anchor="start" style="white-space: pre;" direction="ltr" dominant-baseline="alphabetic">"eyJhbGciOiJIUzI1NiIsInR5cCI6IkpXV</text><text x="0" y="65.92752083619685" font-family="Virgil, Segoe UI Emoji" font-size="11.219795921748954px" fill="#1e1e1e" text-anchor="start" style="white-space: pre;" direction="ltr" dominant-baseline="alphabetic">CJ9.eyJzdWIiOiJ1MTIzIiwiZW1haWwiOi</text><text x="0" y="79.95226573838305" font-family="Virgil, Segoe UI Emoji" font-size="11.219795921748954px" fill="#1e1e1e" text-anchor="start" style="white-space: pre;" direction="ltr" dominant-baseline="alphabetic">JicmF5YW5AZ21haWwuY29tIiwicm9sZX</text><text x="0" y="93.97701064056923" font-family="Virgil, Segoe UI Emoji" font-size="11.219795921748954px" fill="#1e1e1e" text-anchor="start" style="white-space: pre;" direction="ltr" dominant-baseline="alphabetic">MiOlsibGVhZGVyIl0sImV4cCI6MTcxNz</text><text x="0" y="108.00175554275542" font-family="Virgil, Segoe UI Emoji" font-size="11.219795921748954px" fill="#1e1e1e" text-anchor="start" style="white-space: pre;" direction="ltr" dominant-baseline="alphabetic">YyMzIwMH0.QWD7W7O2BlN4zZSeTtz</text><text x="0" y="122.02650044494162" font-family="Virgil, Segoe UI Emoji" font-size="11.219795921748954px" fill="#1e1e1e" text-anchor="start" style="white-space: pre;" direction="ltr" dominant-baseline="alphabetic">8kWZ6GULl9I1lEpId0cFh3ME</text><text x="0" y="136.05124534712783" font-family="Virgil, Segoe UI Emoji" font-size="11.219795921748954px" fill="#1e1e1e" text-anchor="start" style="white-space: pre;" direction="ltr" dominant-baseline="alphabetic">}</text></g><g stroke-linecap="round"><g transform="translate(494.7952085565858 429.24095580599305) rotate(0 -23.99104495707347 -0.19844778828473864)"><path d="M0 0 C-14.6 -0.48, -27.64 -1.2, -47.98 -0.4 M0 0 C-15.28 -0.39, -30.13 0.36, -47.98 -0.4" stroke="#1e1e1e" stroke-width="2" fill="none"></path></g><g transform="translate(494.7952085565858 429.24095580599305) rotate(0 -23.99104495707347 -0.19844778828473864)"><path d="M-47.81 -0.06 L-34.41 -7.05 L-35.4 7.09 L-48.58 -0.06" stroke="none" stroke-width="0" fill="#f8f9fa" fill-rule="evenodd"></path><path d="M-47.98 -0.4 C-44.31 -2.21, -39.47 -4.43, -34.25 -6.43 M-47.98 -0.4 C-43.59 -2.69, -38.89 -3.95, -34.25 -6.43 M-34.25 -6.43 C-34.91 -2.52, -34.04 1.48, -34.53 6.25 M-34.25 -6.43 C-34.39 -1.78, -34.75 2.81, -34.53 6.25 M-34.53 6.25 C-37.87 4.29, -39.6 3.53, -47.98 -0.4 M-34.53 6.25 C-39.15 4.45, -43.79 1.81, -47.98 -0.4 M-47.98 -0.4 C-47.98 -0.4, -47.98 -0.4, -47.98 -0.4 M-47.98 -0.4 C-47.98 -0.4, -47.98 -0.4, -47.98 -0.4" stroke="#1e1e1e" stroke-width="2" fill="none"></path></g></g><mask></mask><g transform="translate(432.0535484863303 10) rotate(0 287.5545085126329 22.5)"><text x="0" y="31.536" font-family="Virgil, Segoe UI Emoji" font-size="36px" fill="#1e1e1e" text-anchor="start" style="white-space: pre;" direction="ltr" dominant-baseline="alphabetic">JWT Authentication</text></g><g stroke-opacity="0" fill-opacity="0" stroke-linecap="round" transform="translate(953.8220483963878 343.5822295973188) rotate(0 23.157015297286392 23.157015297286364)"><path d="M19.29 0.33 C23.91 -0.82, 30.81 0.44, 35.1 2.99 C39.4 5.53, 43.49 10.84, 45.07 15.59 C46.66 20.34, 46.48 26.82, 44.6 31.5 C42.73 36.18, 38.14 41.26, 33.83 43.67 C29.52 46.08, 23.54 46.98, 18.75 45.95 C13.95 44.91, 8.19 41.29, 5.07 37.47 C1.94 33.64, -0.06 27.92, 0.01 23 C0.09 18.09, 2.16 11.83, 5.53 7.97 C8.89 4.11, 17.5 1.09, 20.2 -0.16 C22.89 -1.42, 21.53 -0.07, 21.68 0.44 M21.6 -0.25 C26.3 -0.68, 32.69 2.07, 36.78 5.14 C40.87 8.22, 45.05 13.57, 46.14 18.2 C47.24 22.83, 45.59 28.54, 43.33 32.92 C41.06 37.31, 37.11 42.4, 32.56 44.5 C28.01 46.61, 20.69 46.93, 16.01 45.55 C11.32 44.17, 7.1 40.45, 4.42 36.23 C1.74 32.01, -0.66 25.28, -0.07 20.25 C0.52 15.21, 4.16 9.3, 7.95 6.02 C11.73 2.75, 20.29 1.41, 22.64 0.6 C25 -0.2, 22.25 0.91, 22.09 1.2" stroke="#2f9e44" stroke-width="1" fill="none"></path></g><g stroke-linecap="round"><g transform="translate(988.678413148464 348.857775985894) rotate(0 -12.262928576244974 13.442914772686208)"><path d="M-0.73 -0.41 C-3.08 2.65, -10.46 13.99, -13.16 17.82 C-15.86 21.65, -15.2 23.04, -16.93 22.58 C-18.65 22.12, -22.17 16.55, -23.5 15.05 C-24.82 13.55, -24.89 12.88, -24.89 13.6 C-24.89 14.31, -24.49 17.08, -23.48 19.35 C-22.46 21.62, -20.45 26.17, -18.78 27.22 C-17.11 28.27, -15.8 28.85, -13.46 25.65 C-11.12 22.45, -7.13 12.39, -4.73 8.02 C-2.34 3.65, 0.08 0.88, 0.91 -0.58 M1.09 -1.66 C-1.4 1.55, -10.4 14.64, -13.51 18.88 C-16.63 23.12, -15.91 24.24, -17.62 23.78 C-19.32 23.32, -22.86 17.79, -23.74 16.13 C-24.62 14.47, -23.16 12.95, -22.89 13.83 C-22.63 14.71, -23 19.39, -22.16 21.42 C-21.33 23.46, -19.18 25.41, -17.89 26.05 C-16.59 26.7, -16.87 28.53, -14.38 25.3 C-11.89 22.06, -5.09 11.08, -2.95 6.64 C-0.8 2.2, -2.1 -0.2, -1.5 -1.34" stroke="#2f9e44" stroke-width="1" fill="none"></path></g></g><mask></mask><g transform="translate(963.3865029975622 377.0844826710869) rotate(0 12.965522766113281 4.958364638255887)"><text x="12.965522766113281" y="6.94964387697942" font-family="Virgil, Segoe UI Emoji" font-size="7.933383421209383px" fill="#2f9e44" text-anchor="middle" style="white-space: pre;" direction="ltr" dominant-baseline="alphabetic">Succes</text></g><g stroke-opacity="0" fill-opacity="0" stroke-linecap="round" transform="translate(1045.7373506172758 341.3220247106224) rotate(0 24.852187930760977 24.852187930760977)"><path d="M28.04 -0.08 C33.19 0.15, 39.61 3.65, 43.15 7.5 C46.69 11.36, 48.93 17.71, 49.27 23.05 C49.61 28.38, 48.4 35.22, 45.2 39.51 C42.01 43.8, 35.37 47.52, 30.11 48.78 C24.84 50.03, 18.32 49.39, 13.62 47.04 C8.92 44.68, 3.98 39.58, 1.9 34.65 C-0.18 29.71, -0.4 22.57, 1.15 17.45 C2.7 12.33, 6.71 6.78, 11.23 3.92 C15.75 1.06, 25.3 0.78, 28.27 0.29 C31.24 -0.2, 29.02 0.57, 29.05 0.98 M21.25 0.32 C26.26 -0.66, 34.02 0.85, 38.65 3.71 C43.29 6.56, 47.44 12.42, 49.07 17.44 C50.7 22.45, 50.61 28.83, 48.44 33.78 C46.27 38.73, 40.77 44.59, 36.05 47.15 C31.33 49.7, 25.38 50.22, 20.14 49.09 C14.9 47.96, 7.96 44.51, 4.63 40.37 C1.3 36.22, -0.01 29.66, 0.15 24.22 C0.32 18.79, 2.02 11.77, 5.63 7.74 C9.24 3.71, 19.27 1.31, 21.8 0.05 C24.33 -1.21, 20.83 -0.18, 20.81 0.17" stroke="#e03131" stroke-width="1" fill="none"></path></g><g stroke-linecap="round"><g transform="translate(1081.2553348645833 350.5417756776808) rotate(0.17381715483743565 -11.483791687431932 12.56933714264818)"><path d="M0.58 -1.06 C-1.2 0.66, -8.24 7.85, -10.98 9.5 C-13.71 11.16, -13.87 10.19, -15.83 8.88 C-17.8 7.57, -21.21 2.14, -22.76 1.64 C-24.31 1.14, -25.81 4.47, -25.13 5.88 C-24.45 7.3, -19.8 8.77, -18.67 10.13 C-17.53 11.49, -17.23 11.96, -18.32 14.03 C-19.4 16.09, -24.48 20.72, -25.18 22.52 C-25.88 24.32, -24.13 25.74, -22.54 24.83 C-20.94 23.92, -17.56 18.35, -15.63 17.05 C-13.71 15.75, -13.05 15.65, -10.98 17.04 C-8.91 18.42, -4.94 24.22, -3.19 25.34 C-1.44 26.47, 0.34 25.49, -0.5 23.76 C-1.33 22.03, -7.14 17.15, -8.19 14.97 C-9.24 12.78, -8.52 12.66, -6.79 10.64 C-5.07 8.61, 0.85 4.6, 2.16 2.81 C3.47 1.03, 1.29 0.32, 1.09 -0.06 M-0.57 1 C-2.48 2.42, -9.15 6.04, -11.88 7.6 C-14.61 9.16, -15.07 11.26, -16.93 10.37 C-18.78 9.47, -21.9 3.43, -23 2.24 C-24.11 1.05, -24.45 1.56, -23.55 3.23 C-22.66 4.91, -18.53 10.72, -17.61 12.3 C-16.69 13.89, -16.61 11.1, -18.03 12.73 C-19.46 14.35, -25.15 20.27, -26.16 22.08 C-27.18 23.88, -25.98 24.46, -24.13 23.54 C-22.27 22.61, -17.28 17.47, -15.06 16.51 C-12.84 15.55, -12.54 16.36, -10.79 17.78 C-9.04 19.2, -6.35 24.09, -4.57 25.03 C-2.79 25.97, 0.61 25.17, -0.1 23.4 C-0.82 21.63, -7.85 16.68, -8.85 14.42 C-9.85 12.15, -8.11 11.52, -6.11 9.81 C-4.12 8.09, 2.04 5.65, 3.12 4.12 C4.21 2.6, 0.89 1.15, 0.4 0.65" stroke="#e03131" stroke-width="1" fill="none"></path></g></g><mask></mask><g transform="translate(1062.5173202469036 377.9792634056847) rotate(0 7.331352233886719 5.321333869551609)"><text x="7.331352233886719" y="7.458381551563514" font-family="Virgil, Segoe UI Emoji" font-size="8.51413419128255px" fill="#e03131" text-anchor="middle" style="white-space: pre;" direction="ltr" dominant-baseline="alphabetic">Fail</text></g><g stroke-linecap="round"><g transform="translate(1031.1698794940307 326.41096172095877) rotate(0 52.2420268305128 42.036539626750994)"><path d="M0 0 C-1.8 30.37, -0.56 58.96, 0 84.07 M0 0 C0.2 20.62, 1.17 42.46, 0 84.07 M0 84.07 C26.08 84.75, 50.12 84.35, 104.48 84.07 M0 84.07 C31.33 85.26, 63.65 85.1, 104.48 84.07" stroke="#1e1e1e" stroke-width="2" fill="none"></path></g><g transform="translate(1031.1698794940307 326.41096172095877) rotate(0 52.2420268305128 42.036539626750994)"><path d="M106.39 83.71 L90.94 89.29 L89.66 76.85 L102.72 83.99" stroke="none" stroke-width="0" fill="#f8f9fa" fill-rule="evenodd"></path><path d="M104.48 84.07 C98.53 86.95, 94.69 88.4, 91.02 90.68 M104.48 84.07 C100.71 85.23, 98.04 87.39, 91.02 90.68 M91.02 90.68 C92.15 88.39, 91.96 85.19, 90.77 78 M91.02 90.68 C90.73 87.32, 91.05 83.37, 90.77 78 M90.77 78 C93.37 80.63, 98.14 80.77, 104.48 84.07 M90.77 78 C93.27 78.67, 96.79 80.7, 104.48 84.07 M104.48 84.07 C104.48 84.07, 104.48 84.07, 104.48 84.07 M104.48 84.07 C104.48 84.07, 104.48 84.07, 104.48 84.07" stroke="#1e1e1e" stroke-width="2" fill="none"></path></g></g><mask></mask><g transform="translate(1201.6084993759266 359.39526873453815) rotate(0 33.611438159364695 11.806930396898224)"><text x="0" y="16.54859364429258" font-family="Virgil, Segoe UI Emoji" font-size="18.891088635037192px" fill="#1e1e1e" text-anchor="start" style="white-space: pre;" direction="ltr" dominant-baseline="alphabetic">ERROR</text></g><g transform="translate(1175.6073191973296 385.21626211844034) rotate(0 64.89752759828878 16.535504276497534)"><text x="0" y="11.588081396969486" font-family="Virgil, Segoe UI Emoji" font-size="13.22840342119804px" fill="#1e1e1e" text-anchor="start" style="white-space: pre;" direction="ltr" dominant-baseline="alphabetic">email or password</text><text x="0" y="28.123585673467037" font-family="Virgil, Segoe UI Emoji" font-size="13.22840342119804px" fill="#1e1e1e" text-anchor="start" style="white-space: pre;" direction="ltr" dominant-baseline="alphabetic">incorrect</text></g><g transform="translate(777.0889642903103 401.94135424801993) rotate(0 91.38493048494891 12.5)"><text x="0" y="17.52" font-family="Virgil, Segoe UI Emoji" font-size="20px" fill="#1e1e1e" text-anchor="start" style="white-space: pre;" direction="ltr" dominant-baseline="alphabetic">GenerateToken()</text></g><g transform="translate(780.1550016087665 803.5490345672997) rotate(0 130.40540443826112 52.3383104865369)"><text x="0" y="10.479625139704298" font-family="Virgil, Segoe UI Emoji" font-size="11.963042396922715px" fill="#1e1e1e" text-anchor="start" style="white-space: pre;" direction="ltr" dominant-baseline="alphabetic">EXAMPLE payload:</text><text x="0" y="25.433428135857692" font-family="Virgil, Segoe UI Emoji" font-size="11.963042396922715px" fill="#1e1e1e" text-anchor="start" style="white-space: pre;" direction="ltr" dominant-baseline="alphabetic">{</text><text x="0" y="40.38723113201109" font-family="Virgil, Segoe UI Emoji" font-size="11.963042396922715px" fill="#1e1e1e" text-anchor="start" style="white-space: pre;" direction="ltr" dominant-baseline="alphabetic">    id: 123,</text><text x="0" y="55.34103412816448" font-family="Virgil, Segoe UI Emoji" font-size="11.963042396922715px" fill="#1e1e1e" text-anchor="start" style="white-space: pre;" direction="ltr" dominant-baseline="alphabetic">    name: "John",</text><text x="0" y="70.29483712431788" font-family="Virgil, Segoe UI Emoji" font-size="11.963042396922715px" fill="#1e1e1e" text-anchor="start" style="white-space: pre;" direction="ltr" dominant-baseline="alphabetic">    roles: ["leader"."member"],</text><text x="0" y="85.24864012047126" font-family="Virgil, Segoe UI Emoji" font-size="11.963042396922715px" fill="#1e1e1e" text-anchor="start" style="white-space: pre;" direction="ltr" dominant-baseline="alphabetic">    expiracy: 12312414</text><text x="0" y="100.20244311662466" font-family="Virgil, Segoe UI Emoji" font-size="11.963042396922715px" fill="#1e1e1e" text-anchor="start" style="white-space: pre;" direction="ltr" dominant-baseline="alphabetic">}</text></g><g transform="translate(737.3473467382053 728.7094471685898) rotate(0 124.33417026373633 12.5)"><text x="0" y="17.52" font-family="Virgil, Segoe UI Emoji" font-size="20px" fill="#1e1e1e" text-anchor="start" style="white-space: pre;" direction="ltr" dominant-baseline="alphabetic">Server prepares payload</text></g><g transform="translate(776.9512106135026 764.0827811155655) rotate(0 86.23995904392885 10)"><text x="0" y="14.016" font-family="Virgil, Segoe UI Emoji" font-size="16px" fill="#e03131" text-anchor="start" style="white-space: pre;" direction="ltr" dominant-baseline="alphabetic">NO SENSIBLE DATA</text></g><g transform="translate(1056.3312973421134 776.2210868582856) rotate(0 130.4054044382611 44.8614089884602)"><text x="0" y="10.479625139704298" font-family="Virgil, Segoe UI Emoji" font-size="11.963042396922715px" fill="#1e1e1e" text-anchor="start" style="white-space: pre;" direction="ltr" dominant-baseline="alphabetic">.env signature:</text><text x="0" y="25.433428135857692" font-family="Virgil, Segoe UI Emoji" font-size="11.963042396922715px" fill="#1e1e1e" text-anchor="start" style="white-space: pre;" direction="ltr" dominant-baseline="alphabetic"></text><text x="0" y="40.38723113201109" font-family="Virgil, Segoe UI Emoji" font-size="11.963042396922715px" fill="#1e1e1e" text-anchor="start" style="white-space: pre;" direction="ltr" dominant-baseline="alphabetic">secret: "super-secret-key"</text><text x="0" y="55.34103412816448" font-family="Virgil, Segoe UI Emoji" font-size="11.963042396922715px" fill="#1e1e1e" text-anchor="start" style="white-space: pre;" direction="ltr" dominant-baseline="alphabetic"></text><text x="0" y="70.29483712431788" font-family="Virgil, Segoe UI Emoji" font-size="11.963042396922715px" fill="#1e1e1e" text-anchor="start" style="white-space: pre;" direction="ltr" dominant-baseline="alphabetic">(only your backend codebase should know</text><text x="0" y="85.24864012047126" font-family="Virgil, Segoe UI Emoji" font-size="11.963042396922715px" fill="#1e1e1e" text-anchor="start" style="white-space: pre;" direction="ltr" dominant-baseline="alphabetic">this secret, remember... it is a secret)</text></g><g transform="translate(508.4931755972812 774.0569145844061) rotate(0 125.30049705375465 52.3383104865369)"><text x="0" y="10.479625139704298" font-family="Virgil, Segoe UI Emoji" font-size="11.963042396922715px" fill="#1e1e1e" text-anchor="start" style="white-space: pre;" direction="ltr" dominant-baseline="alphabetic">EXAMPLE header:</text><text x="0" y="25.433428135857692" font-family="Virgil, Segoe UI Emoji" font-size="11.963042396922715px" fill="#1e1e1e" text-anchor="start" style="white-space: pre;" direction="ltr" dominant-baseline="alphabetic">{</text><text x="0" y="40.38723113201109" font-family="Virgil, Segoe UI Emoji" font-size="11.963042396922715px" fill="#1e1e1e" text-anchor="start" style="white-space: pre;" direction="ltr" dominant-baseline="alphabetic">  "alg": "HS256",</text><text x="0" y="55.34103412816448" font-family="Virgil, Segoe UI Emoji" font-size="11.963042396922715px" fill="#1e1e1e" text-anchor="start" style="white-space: pre;" direction="ltr" dominant-baseline="alphabetic">  "typ": "JWT"</text><text x="0" y="70.29483712431788" font-family="Virgil, Segoe UI Emoji" font-size="11.963042396922715px" fill="#1e1e1e" text-anchor="start" style="white-space: pre;" direction="ltr" dominant-baseline="alphabetic">}</text><text x="0" y="85.24864012047126" font-family="Virgil, Segoe UI Emoji" font-size="11.963042396922715px" fill="#1e1e1e" text-anchor="start" style="white-space: pre;" direction="ltr" dominant-baseline="alphabetic"></text><text x="0" y="100.20244311662466" font-family="Virgil, Segoe UI Emoji" font-size="11.963042396922715px" fill="#1e1e1e" text-anchor="start" style="white-space: pre;" direction="ltr" dominant-baseline="alphabetic">Basically token type details</text></g><g stroke-linecap="round"><g transform="translate(587.8779410207181 899.1920947964961) rotate(0 -0.4386254952160229 31.475921936852842)"><path d="M0 0 C-2.29 23.7, -1.03 46.3, -0.88 62.95 M0 0 C-1.74 23.52, -0.94 46.83, -0.88 62.95" stroke="#1e1e1e" stroke-width="2" fill="none"></path></g><g transform="translate(587.8779410207181 899.1920947964961) rotate(0 -0.4386254952160229 31.475921936852842)"><path d="M-1.32 61.55 L-6.58 48.91 L3.95 48.82 L-0.25 62.64" stroke="none" stroke-width="0" fill="#f8f9fa" fill-rule="evenodd"></path><path d="M-0.88 62.95 C-4.57 58.05, -5.8 52.33, -7.35 49.42 M-0.88 62.95 C-3.85 58.06, -5.41 52.95, -7.35 49.42 M-7.35 49.42 C-3.63 49.63, -0.23 49.98, 5.32 49.29 M-7.35 49.42 C-3.84 49.39, 0.91 48.89, 5.32 49.29 M5.32 49.29 C5.15 51.48, 2.42 54.7, -0.88 62.95 M5.32 49.29 C3.38 54.04, 0.66 60.61, -0.88 62.95 M-0.88 62.95 C-0.88 62.95, -0.88 62.95, -0.88 62.95 M-0.88 62.95 C-0.88 62.95, -0.88 62.95, -0.88 62.95" stroke="#1e1e1e" stroke-width="2" fill="none"></path></g></g><mask></mask><g transform="translate(505.1508909046195 975.0199600781439) rotate(0 82.80382320107884 20)"><text x="0" y="14.016" font-family="Virgil, Segoe UI Emoji" font-size="16px" fill="#e03131" text-anchor="start" style="white-space: pre;" direction="ltr" dominant-baseline="alphabetic">eyJhbGciOiJIUzI1NiIs</text><text x="0" y="34.016" font-family="Virgil, Segoe UI Emoji" font-size="16px" fill="#e03131" text-anchor="start" style="white-space: pre;" direction="ltr" dominant-baseline="alphabetic">InR5cCI6IkpXVCJ9</text></g><g transform="translate(727.2100423425157 972.4188937444687) rotate(0 129.0110971984271 60)"><text x="0" y="14.016" font-family="Virgil, Segoe UI Emoji" font-size="16px" fill="#9c36b5" text-anchor="start" style="white-space: pre;" direction="ltr" dominant-baseline="alphabetic">eyJzdWIiOiJ1MTIzIiwiZW1haWwiOi</text><text x="0" y="34.016" font-family="Virgil, Segoe UI Emoji" font-size="16px" fill="#9c36b5" text-anchor="start" style="white-space: pre;" direction="ltr" dominant-baseline="alphabetic">JicmF5YW5AZ21haWwuY29tIiwicm</text><text x="0" y="54.016" font-family="Virgil, Segoe UI Emoji" font-size="16px" fill="#9c36b5" text-anchor="start" style="white-space: pre;" direction="ltr" dominant-baseline="alphabetic">9sZXMiOlsibGVhZGVyIl0sImRpdml</text><text x="0" y="74.016" font-family="Virgil, Segoe UI Emoji" font-size="16px" fill="#9c36b5" text-anchor="start" style="white-space: pre;" direction="ltr" dominant-baseline="alphabetic">zaW9ucyI6WyJDaWJlcnNlZ3VyaW</text><text x="0" y="94.016" font-family="Virgil, Segoe UI Emoji" font-size="16px" fill="#9c36b5" text-anchor="start" style="white-space: pre;" direction="ltr" dominant-baseline="alphabetic">RhZCJdLCJleHAiOjE3MTc2MjMy</text><text x="0" y="114.016" font-family="Virgil, Segoe UI Emoji" font-size="16px" fill="#9c36b5" text-anchor="start" style="white-space: pre;" direction="ltr" dominant-baseline="alphabetic">MDB9</text></g><g stroke-linecap="round"><g transform="translate(857.2895412853272 921.6309229892563) rotate(0 0.8778335853223211 18.79621650230615)"><path d="M0 0 C0.22 8.64, 1.39 15.25, 1.76 37.59 M0 0 C0.41 8.15, 0.66 15.75, 1.76 37.59" stroke="#1e1e1e" stroke-width="2" fill="none"></path></g><g transform="translate(857.2895412853272 921.6309229892563) rotate(0 0.8778335853223211 18.79621650230615)"><path d="M1.32 38.01 L-6.19 23.6 L6.75 24.02 L0.95 38.25" stroke="none" stroke-width="0" fill="#f8f9fa" fill-rule="evenodd"></path><path d="M1.76 37.59 C0.1 35.41, -0.76 31.71, -5.23 24.32 M1.76 37.59 C0.18 35.14, -1.34 32.3, -5.23 24.32 M-5.23 24.32 C-0.32 24, 3.84 24.44, 7.43 23.71 M-5.23 24.32 C-1.22 24.18, 2.63 24.13, 7.43 23.71 M7.43 23.71 C6.35 28.77, 3.98 33.01, 1.76 37.59 M7.43 23.71 C5.79 28.47, 3.35 33.05, 1.76 37.59 M1.76 37.59 C1.76 37.59, 1.76 37.59, 1.76 37.59 M1.76 37.59 C1.76 37.59, 1.76 37.59, 1.76 37.59" stroke="#1e1e1e" stroke-width="2" fill="none"></path></g></g><mask></mask><g transform="translate(1041.8938332116704 969.4116247048325) rotate(0 126.57185592419552 20)"><text x="0" y="14.016" font-family="Virgil, Segoe UI Emoji" font-size="16px" fill="#1971c2" text-anchor="start" style="white-space: pre;" direction="ltr" dominant-baseline="alphabetic">hHf56QW3MqJX8Nh0CfZrKzqzE</text><text x="0" y="34.016" font-family="Virgil, Segoe UI Emoji" font-size="16px" fill="#1971c2" text-anchor="start" style="white-space: pre;" direction="ltr" dominant-baseline="alphabetic">CasV9UgS7ZyR8B4VdA</text></g><g stroke-linecap="round"><g transform="translate(1153.1404135042883 881.33155554381) rotate(0 -0.3831114041074102 38.69566655415201)"><path d="M0 0 C1 18.87, -1.49 39.08, -0.77 77.39 M0 0 C0.8 21.36, -0.67 43.88, -0.77 77.39" stroke="#1e1e1e" stroke-width="2" fill="none"></path></g><g transform="translate(1153.1404135042883 881.33155554381) rotate(0 -0.3831114041074102 38.69566655415201)"><path d="M0.58 75.53 L-5.74 64.75 L5.03 63.61 L-0.56 75.5" stroke="none" stroke-width="0" fill="#f8f9fa" fill-rule="evenodd"></path><path d="M-0.77 77.39 C-1.23 73.49, -4.51 70.56, -6.93 63.71 M-0.77 77.39 C-1.81 73.32, -4.48 70.09, -6.93 63.71 M-6.93 63.71 C-4.23 64.18, -1.17 63.11, 5.75 63.88 M-6.93 63.71 C-4.02 64, 0.12 63.83, 5.75 63.88 M5.75 63.88 C4.8 65.98, 1.85 72.02, -0.77 77.39 M5.75 63.88 C2.67 68.23, 1.09 74.63, -0.77 77.39 M-0.77 77.39 C-0.77 77.39, -0.77 77.39, -0.77 77.39 M-0.77 77.39 C-0.77 77.39, -0.77 77.39, -0.77 77.39" stroke="#1e1e1e" stroke-width="2" fill="none"></path></g></g><mask></mask><g transform="translate(728.9393670703704 1158.8177053944376) rotate(0 41.1630859375 15.817927580947526)"><text x="0" y="22.170407297456116" font-family="Virgil, Segoe UI Emoji" font-size="25.308684129516113px" fill="#e03131" text-anchor="start" style="white-space: pre;" direction="ltr" dominant-baseline="alphabetic">header</text></g><g transform="translate(813.1362713955211 1160.3541812086448) rotate(0 3.466094970703125 15.817927580947526)"><text x="0" y="22.170407297456116" font-family="Virgil, Segoe UI Emoji" font-size="25.308684129516113px" fill="#1e1e1e" text-anchor="start" style="white-space: pre;" direction="ltr" dominant-baseline="alphabetic">.</text></g><g transform="translate(822.7302911376843 1159.0761446621445) rotate(0 51.39220100970576 15.817927580947526)"><text x="0" y="22.170407297456116" font-family="Virgil, Segoe UI Emoji" font-size="25.308684129516113px" fill="#9c36b5" text-anchor="start" style="white-space: pre;" direction="ltr" dominant-baseline="alphabetic">payload</text></g><g transform="translate(920.0903843135485 1158.8177057985035) rotate(0 9.842266050367385 15.817927580947526)"><text x="0" y="22.170407297456116" font-family="Virgil, Segoe UI Emoji" font-size="25.308684129516113px" fill="#1e1e1e" text-anchor="start" style="white-space: pre;" direction="ltr" dominant-baseline="alphabetic">.</text></g><g transform="translate(929.9326502128092 1158.8177057799066) rotate(0 58.725598048197696 15.817927580947526)"><text x="0" y="22.170407297456116" font-family="Virgil, Segoe UI Emoji" font-size="25.308684129516113px" fill="#1971c2" text-anchor="start" style="white-space: pre;" direction="ltr" dominant-baseline="alphabetic">signature</text></g><g stroke-linecap="round"><g transform="translate(827.8281243059221 436.27486605368927) rotate(0 0 123.8329798040113)"><path d="M0 0 C-1.88 65.35, -2.57 133.51, 0 247.67 M0 0 C-1.32 84.58, -0.89 169.26, 0 247.67" stroke="#1e1e1e" stroke-width="2" fill="none"></path></g><g transform="translate(827.8281243059221 436.27486605368927) rotate(0 0 123.8329798040113)"><path d="M1.37 245.8 L-7.97 234.43 L5.26 232.17 L0.25 249.07" stroke="none" stroke-width="0" fill="#f8f9fa" fill-rule="evenodd"></path><path d="M0 247.67 C-1.93 242.97, -4.29 240.83, -6.46 234.13 M0 247.67 C-2.54 243.11, -4.35 238.69, -6.46 234.13 M-6.46 234.13 C-1.7 233.03, 3.36 233.03, 6.22 234.02 M-6.46 234.13 C-2.92 234.2, -0.28 233.94, 6.22 234.02 M6.22 234.02 C4.84 239.56, 2.87 242.17, 0 247.67 M6.22 234.02 C4.56 236.81, 2.77 241.11, 0 247.67 M0 247.67 C0 247.67, 0 247.67, 0 247.67 M0 247.67 C0 247.67, 0 247.67, 0 247.67" stroke="#1e1e1e" stroke-width="2" fill="none"></path></g></g><mask></mask><g stroke-linecap="round"><g transform="translate(828.4116185046353 293.96173776400894) rotate(0 0 52.76688770708091)"><path d="M0 0 C0.48 36.44, -2.23 68.11, 0 105.53" stroke="#1e1e1e" stroke-width="2.5" fill="none" stroke-dasharray="8 10"></path></g></g><mask></mask><g stroke-linecap="round"><g transform="translate(591.2906527406961 1026.202429069623) rotate(0 83.63647647854263 63.09125593203771)"><path d="M0 0 C56.54 42.06, 109.08 84.2, 167.27 126.18 M0 0 C44 33.84, 88.09 67.03, 167.27 126.18" stroke="#1e1e1e" stroke-width="2" fill="none"></path></g><g transform="translate(591.2906527406961 1026.202429069623) rotate(0 83.63647647854263 63.09125593203771)"><path d="M168.89 125.51 L151.15 124.63 L160.93 111.54 L166.67 124.41" stroke="none" stroke-width="0" fill="#f8f9fa" fill-rule="evenodd"></path><path d="M167.27 126.18 C163.16 124.89, 156.17 124.39, 152.59 123.11 M167.27 126.18 C163.23 125.59, 159.03 124.48, 152.59 123.11 M152.59 123.11 C154.69 118.12, 158.44 115.11, 160.19 112.96 M152.59 123.11 C154.87 119.13, 157.84 115.82, 160.19 112.96 M160.19 112.96 C164.02 118.95, 164.04 123.71, 167.27 126.18 M160.19 112.96 C162.37 116.15, 162.84 118.86, 167.27 126.18 M167.27 126.18 C167.27 126.18, 167.27 126.18, 167.27 126.18 M167.27 126.18 C167.27 126.18, 167.27 126.18, 167.27 126.18" stroke="#1e1e1e" stroke-width="2" fill="none"></path></g></g><mask></mask><g stroke-linecap="round"><g transform="translate(862.1232594566363 1093.418893744469) rotate(0 0.044613579675484516 28.93930963957189)"><path d="M0 0 C0.61 19.82, 1.35 40.3, 0.09 57.88 M0 0 C0.78 23.6, 1.07 44.82, 0.09 57.88" stroke="#1e1e1e" stroke-width="2" fill="none"></path></g><g transform="translate(862.1232594566363 1093.418893744469) rotate(0 0.044613579675484516 28.93930963957189)"><path d="M0.49 58.74 L-5.72 43.66 L8.2 44.07 L-0.68 59.79" stroke="none" stroke-width="0" fill="#f8f9fa" fill-rule="evenodd"></path><path d="M0.09 57.88 C-1.19 53.5, -2.61 49.55, -5.69 44.04 M0.09 57.88 C-1.67 53.12, -3.75 46.52, -5.69 44.04 M-5.69 44.04 C-1.82 45.28, -1.4 45.37, 6.98 44.55 M-5.69 44.04 C-1.14 43.77, 3.48 44.57, 6.98 44.55 M6.98 44.55 C4.38 50.3, 2.95 52.91, 0.09 57.88 M6.98 44.55 C5.23 48.14, 2.94 53.49, 0.09 57.88 M0.09 57.88 C0.09 57.88, 0.09 57.88, 0.09 57.88 M0.09 57.88 C0.09 57.88, 0.09 57.88, 0.09 57.88" stroke="#1e1e1e" stroke-width="2" fill="none"></path></g></g><mask></mask><g stroke-linecap="round"><g transform="translate(1076.0638622982729 1019.6506618633061) rotate(0 -21.868239163894202 67.85923975934202)"><path d="M0 0 C-10.39 22.64, -19.02 47.12, -25.41 71.84 M0 0 C-8.98 25.29, -17.71 49.53, -25.41 71.84 M-25.41 71.84 C-32.54 98.07, -40.2 121.6, -43.74 135.72 M-25.41 71.84 C-30.42 93.12, -38.01 114.76, -43.74 135.72" stroke="#1e1e1e" stroke-width="2" fill="none"></path></g><g transform="translate(1076.0638622982729 1019.6506618633061) rotate(0 -21.868239163894202 67.85923975934202)"><path d="M-44.43 135.54 L-45.69 120.81 L-32.24 123.18 L-44.47 134.37" stroke="none" stroke-width="0" fill="#f8f9fa" fill-rule="evenodd"></path><path d="M-43.74 135.72 C-45.45 129.82, -46.33 125.31, -46.02 120.89 M-43.74 135.72 C-44.53 131.41, -45.43 126.46, -46.02 120.89 M-46.02 120.89 C-41.6 123.04, -37.19 123.57, -33.85 124.44 M-46.02 120.89 C-41.38 121.92, -38.03 122.96, -33.85 124.44 M-33.85 124.44 C-36.18 127.42, -39.78 132.74, -43.74 135.72 M-33.85 124.44 C-35.46 127.58, -38.38 130.4, -43.74 135.72 M-43.74 135.72 C-43.74 135.72, -43.74 135.72, -43.74 135.72 M-43.74 135.72 C-43.74 135.72, -43.74 135.72, -43.74 135.72" stroke="#1e1e1e" stroke-width="2" fill="none"></path></g></g><mask></mask><g stroke-linecap="round"><g transform="translate(865.5695748491833 1200.3684944624897) rotate(0 0.3134067428503897 35.00591906023419)"><path d="M0 0 C0.02 20.21, 0.91 46.01, 0.63 70.01 M0 0 C0.01 19.08, -0.49 39.59, 0.63 70.01" stroke="#1e1e1e" stroke-width="2" fill="none"></path></g><g transform="translate(865.5695748491833 1200.3684944624897) rotate(0 0.3134067428503897 35.00591906023419)"><path d="M1.7 68.18 L-7 57.13 L6.75 54.56 L-0.16 69.49" stroke="none" stroke-width="0" fill="#f8f9fa" fill-rule="evenodd"></path><path d="M0.63 70.01 C-1.97 64.33, -3.57 62.78, -6.05 56.58 M0.63 70.01 C-1.37 66.05, -3.73 63.15, -6.05 56.58 M-6.05 56.58 C-2.36 56.87, -0.75 56.73, 6.62 56.26 M-6.05 56.58 C-2.8 56.76, 1.97 57.09, 6.62 56.26 M6.62 56.26 C6.28 58.47, 4.15 63.26, 0.63 70.01 M6.62 56.26 C5.58 59.46, 4.02 63.55, 0.63 70.01 M0.63 70.01 C0.63 70.01, 0.63 70.01, 0.63 70.01 M0.63 70.01 C0.63 70.01, 0.63 70.01, 0.63 70.01" stroke="#1e1e1e" stroke-width="2" fill="none"></path></g></g><mask></mask><g transform="translate(566.2517863101632 1284.3942798337803) rotate(0 259.2998046875 62.5)"><text x="0" y="17.52" font-family="Virgil, Segoe UI Emoji" font-size="20px" fill="#2f9e44" text-anchor="start" style="white-space: pre;" direction="ltr" dominant-baseline="alphabetic">eyJhbGciOiJIUzI1NiIsInR5cCI6IkpXVCJ9.eyJzdWIiOiJ1</text><text x="0" y="42.519999999999996" font-family="Virgil, Segoe UI Emoji" font-size="20px" fill="#2f9e44" text-anchor="start" style="white-space: pre;" direction="ltr" dominant-baseline="alphabetic">MTIzIiwiZW1haWwiOiJicmF5YW5AZ21haWwuY29tIiwicm</text><text x="0" y="67.52" font-family="Virgil, Segoe UI Emoji" font-size="20px" fill="#2f9e44" text-anchor="start" style="white-space: pre;" direction="ltr" dominant-baseline="alphabetic">9sZXMiOlsibGVhZGVyIl0sImV4cCI6MTcxNzYyMzIwMH</text><text x="0" y="92.52" font-family="Virgil, Segoe UI Emoji" font-size="20px" fill="#2f9e44" text-anchor="start" style="white-space: pre;" direction="ltr" dominant-baseline="alphabetic">0.QWD7W7O2BlN4zZSeTtz8kWZ6GULl9I1lEpId0cFh3</text><text x="0" y="117.52" font-family="Virgil, Segoe UI Emoji" font-size="20px" fill="#2f9e44" text-anchor="start" style="white-space: pre;" direction="ltr" dominant-baseline="alphabetic">ME</text></g><g transform="translate(1096.451653786399 1167.7551112716983) rotate(0 107.11778569784371 22.5)"><text x="0" y="31.536" font-family="Virgil, Segoe UI Emoji" font-size="36px" fill="#1e1e1e" text-anchor="start" style="white-space: pre;" direction="ltr" dominant-baseline="alphabetic">Valid Token</text></g><g stroke-linecap="round"><g transform="translate(1063.2816495969603 1266.0238430165055) rotate(0 17.9883217561366 -22.144392618338543)"><path d="M0 0 C11.06 -15.1, 24.51 -28.44, 35.98 -44.29" stroke="#1e1e1e" stroke-width="2.5" fill="none" stroke-dasharray="8 10"></path></g><g transform="translate(1063.2816495969603 1266.0238430165055) rotate(0 17.9883217561366 -22.144392618338543)"><path d="M-1.07 -8.5 C0.69 -8.95, 2.44 -9.07, 4.08 -8.08 C5.72 -7.08, 7.99 -4.45, 8.79 -2.53 C9.59 -0.6, 9.59 1.84, 8.88 3.46 C8.17 5.08, 6.27 6.24, 4.52 7.18 C2.78 8.12, 0.32 9.35, -1.57 9.08 C-3.46 8.81, -5.59 7.06, -6.82 5.56 C-8.05 4.05, -8.92 1.95, -8.94 0.04 C-8.95 -1.87, -8.28 -4.39, -6.91 -5.9 C-5.55 -7.41, -1.82 -8.59, -0.76 -9.04 C0.31 -9.48, -0.49 -8.8, -0.53 -8.55" stroke="none" stroke-width="0" fill="#1e1e1e"></path><path d="M-1.5 -8.91 C0.25 -9.35, 3.22 -8.72, 4.87 -7.71 C6.51 -6.71, 7.8 -4.8, 8.36 -2.89 C8.92 -0.97, 8.95 2, 8.24 3.78 C7.53 5.56, 5.86 7.02, 4.11 7.78 C2.35 8.54, -0.41 8.7, -2.29 8.36 C-4.18 8.02, -6.02 7.22, -7.19 5.74 C-8.36 4.25, -9.3 1.43, -9.3 -0.55 C-9.3 -2.53, -8.63 -4.73, -7.18 -6.13 C-5.73 -7.53, -1.65 -8.6, -0.62 -8.94 C0.41 -9.28, -0.99 -8.4, -0.99 -8.2" stroke="#1e1e1e" stroke-width="2.5" fill="none"></path></g></g><mask></mask><g stroke-linecap="round" transform="translate(101.36852236882532 87.22156444349253) rotate(0 615.5509618625898 241.9213007196994)"><path d="M0 0 C455.2 2.11, 911.97 2.31, 1231.1 0 M0 0 C256.91 -4.01, 513.83 -4.2, 1231.1 0 M1231.1 0 C1232.72 184.68, 1232.67 370.45, 1231.1 483.84 M1231.1 0 C1230.47 127.59, 1229.9 255.27, 1231.1 483.84 M1231.1 483.84 C981.71 485.85, 731.51 485.41, 0 483.84 M1231.1 483.84 C786.97 479.6, 343.27 480.12, 0 483.84 M0 483.84 C1.17 324.03, 1.16 165.27, 0 0 M0 483.84 C-1.31 382.08, -1.6 280.61, 0 0" stroke="#1e1e1e" stroke-width="2" fill="none"></path></g><g stroke-linecap="round" transform="translate(404.4431025132991 683.9408249408343) rotate(0 464.013671508189 374.91938540258207)"><path d="M0 0 C210.21 -0.58, 420.74 -2.04, 928.03 0 M0 0 C289.47 0.4, 579.22 0.39, 928.03 0 M928.03 0 C930.65 157.42, 931.2 315.09, 928.03 749.84 M928.03 0 C930.99 264.02, 930.73 528.43, 928.03 749.84 M928.03 749.84 C633.7 748.81, 337.49 747.38, 0 749.84 M928.03 749.84 C673.53 748.62, 418.38 748.69, 0 749.84 M0 749.84 C-2.18 595.27, -2.93 441.02, 0 0 M0 749.84 C-1.76 595.15, -1.75 440.69, 0 0" stroke="#1e1e1e" stroke-width="2" fill="none"></path></g><g transform="translate(10 1040.0373704818153) rotate(0 176.52470598043544 25)"><text x="0" y="17.52" font-family="Virgil, Segoe UI Emoji" font-size="20px" fill="#1e1e1e" text-anchor="start" style="white-space: pre;" direction="ltr" dominant-baseline="alphabetic">the generated token is sent in the</text><text x="0" y="42.519999999999996" font-family="Virgil, Segoe UI Emoji" font-size="20px" fill="#1e1e1e" text-anchor="start" style="white-space: pre;" direction="ltr" dominant-baseline="alphabetic">response of the login endpoint</text></g><g transform="translate(934.3869414244633 605.5603320703763) rotate(0 287.5545085126329 22.5)"><text x="0" y="31.536" font-family="Virgil, Segoe UI Emoji" font-size="36px" fill="#1e1e1e" text-anchor="start" style="white-space: pre;" direction="ltr" dominant-baseline="alphabetic">JWT Generation</text></g><g stroke-linecap="round"><g transform="translate(546.6393296412098 1352.0045704723639) rotate(0 -195.46799050951824 -112.47891576382256)"><path d="M0 0 C-108.66 1.3, -215.1 2.64, -390.94 0 M-390.94 0 C-389.76 -70, -392.3 -143.8, -390.94 -224.96" stroke="#1e1e1e" stroke-width="2.5" fill="none" stroke-dasharray="8 10"></path></g><g transform="translate(546.6393296412098 1352.0045704723639) rotate(0 -195.46799050951824 -112.47891576382256)"><path d="M-392.59 -224.72 L-382.98 -209.87 L-396.83 -212.23 L-391.73 -224.76" stroke="none" stroke-width="0" fill="#1e1e1e" fill-rule="evenodd"></path><path d="M-390.94 -224.96 C-390.58 -222.07, -387.4 -216.6, -384.67 -211.33 M-384.67 -211.33 C-387.46 -210.27, -393.36 -212.05, -397.35 -211.4 M-397.35 -211.4 C-394.57 -215.25, -394.27 -219.73, -390.94 -224.96 M-390.94 -224.96 C-390.94 -224.96, -390.94 -224.96, -390.94 -224.96" stroke="#1e1e1e" stroke-width="2.5" fill="none"></path></g></g><mask></mask><g stroke-linecap="round"><g transform="translate(155.7032298577621 1006.4180805857504) rotate(0 217.63790661453814 -244.01834519264185)"><path d="M0 0 C1.74 -109.17, 0.52 -215.28, 0 -369.57 M0 -369.57 C51.86 -372.2, 101.01 -370.12, 182.06 -369.57 M182.06 -369.57 C248.57 -368.31, 314.67 -369.64, 433.79 -369.57 M433.79 -369.57 C434.02 -395, 434.1 -418.4, 435.28 -488.04" stroke="#1e1e1e" stroke-width="2.5" fill="none" stroke-dasharray="8 10"></path></g><g transform="translate(155.7032298577621 1006.4180805857504) rotate(0 217.63790661453814 -244.01834519264185)"><path d="M433.71 -487.58 L442.24 -472.66 L429.92 -473.65 L434.25 -489.46" stroke="none" stroke-width="0" fill="#1e1e1e" fill-rule="evenodd"></path><path d="M435.28 -488.04 C438.23 -485.09, 438.54 -478.48, 441.4 -474.35 M441.4 -474.35 C438.41 -475.05, 433.69 -473.78, 428.73 -474.54 M428.73 -474.54 C430.11 -477.08, 431.19 -481.89, 435.28 -488.04 M435.28 -488.04 C435.28 -488.04, 435.28 -488.04, 435.28 -488.04" stroke="#1e1e1e" stroke-width="2.5" fill="none"></path></g></g><mask></mask></svg>