<svg version="1.1" xmlns="http://www.w3.org/2000/svg" viewBox="0 0 1251.1019237251796 573.4523484483742" width="1251.1019237251796" height="573.4523484483742">
  <!-- svg-source:excalidraw -->
  
  <defs>
    <style class="style-fonts">
      @font-face {
        font-family: "Virgil";
        src: url("https://excalidraw.com/Virgil.woff2");
      }
      @font-face {
        font-family: "Cascadia";
        src: url("https://excalidraw.com/Cascadia.woff2");
      }
      @font-face {
        font-family: "Assistant";
        src: url("https://excalidraw.com/Assistant-Regular.woff2");
      }
    </style>
    
  </defs>
  <rect x="0" y="0" width="1251.1019237251796" height="573.4523484483742" fill="#f8f9fa"></rect><g stroke-opacity="0" fill-opacity="0" stroke-linecap="round" transform="translate(260.4469754887854 189.33364959703474) rotate(0 58.378661581835615 58.378661581835615)"><path d="M84.25 5.94 C92.33 8.85, 99.59 16.17, 104.84 23.51 C110.1 30.84, 114.34 41.02, 115.77 49.96 C117.2 58.89, 116.22 68.56, 113.4 77.12 C110.58 85.68, 105.17 94.97, 98.83 101.33 C92.5 107.69, 83.96 112.89, 75.4 115.26 C66.85 117.63, 56.58 117.44, 47.5 115.54 C38.43 113.64, 28.01 109.54, 20.95 103.85 C13.89 98.15, 8.75 89.58, 5.16 81.35 C1.56 73.12, -1.34 63.35, -0.6 54.46 C0.14 45.57, 4.54 35.72, 9.59 28.01 C14.63 20.3, 21.99 12.94, 29.67 8.2 C37.35 3.47, 46.27 -0.25, 55.68 -0.41 C65.08 -0.56, 81.09 5.91, 86.11 7.25 C91.13 8.6, 86.4 7.02, 85.78 7.66 M49.01 0.91 C57.52 -0.94, 68.25 1.38, 76.67 4.33 C85.08 7.28, 93.21 12.09, 99.49 18.61 C105.78 25.13, 111.54 35.08, 114.37 43.45 C117.2 51.82, 118.28 59.94, 116.46 68.83 C114.64 77.72, 109.16 89.55, 103.45 96.79 C97.75 104.03, 90.52 108.92, 82.24 112.27 C73.96 115.61, 62.9 117.55, 53.79 116.88 C44.68 116.2, 35.09 112.95, 27.56 108.24 C20.04 103.53, 13.25 96.51, 8.63 88.64 C4.01 80.76, 0.54 70.23, -0.18 60.99 C-0.9 51.75, 0.49 41.67, 4.31 33.22 C8.13 24.77, 15.44 15.63, 22.73 10.29 C30.03 4.95, 43.79 2.73, 48.09 1.2 C52.38 -0.32, 48.02 0.4, 48.53 1.13" stroke="#1e1e1e" stroke-width="1" fill="none"></path></g><g stroke-linecap="round" transform="translate(296.3801556118087 199.3961393835376) rotate(0 22.445481458812097 34.32736593007301)"><path d="M0 0 C11.23 -0.12, 23.94 0.12, 44.89 0 M0 0 C13.17 -0.22, 24.79 0.19, 44.89 0 M44.89 0 C47.25 25.97, 44.61 52.62, 44.89 68.65 M44.89 0 C45.87 24.66, 45.91 48.7, 44.89 68.65 M44.89 68.65 C31.46 69.97, 13.31 67.01, 0 68.65 M44.89 68.65 C30.86 67.93, 18.54 68.63, 0 68.65 M0 68.65 C0.14 49.56, 0.93 32.03, 0 0 M0 68.65 C0.78 54.54, 0.21 40.49, 0 0" stroke="#1e1e1e" stroke-width="1" fill="none"></path></g><g stroke-linecap="round" transform="translate(301.51967737344347 204.63041566799095) rotate(0 17.686344440215905 26.254098365838118)"><path d="M0 0 C15.28 0.47, 27 0.21, 35.37 0 M0 0 C9.91 0.19, 20.27 0.98, 35.37 0 M35.37 0 C34.96 20.48, 36.87 40.09, 35.37 52.51 M35.37 0 C36.73 11.95, 36.25 22.67, 35.37 52.51 M35.37 52.51 C25.53 51.34, 17.17 51.67, 0 52.51 M35.37 52.51 C25.76 52.42, 16.14 53.15, 0 52.51 M0 52.51 C1.32 41.87, -2.06 28.75, 0 0 M0 52.51 C-0.21 32.23, -0.04 11.94, 0 0" stroke="#1e1e1e" stroke-width="1" fill="none"></path></g><g stroke-linecap="round" transform="translate(315.5839390688656 259.38574186085043) rotate(0 3.622082744793559 3.622082744793559)"><path d="M3.59 0.06 C4.35 0.02, 5.39 0.62, 6.04 1.16 C6.69 1.71, 7.33 2.61, 7.49 3.33 C7.65 4.05, 7.49 4.86, 7.01 5.49 C6.54 6.13, 5.4 6.89, 4.64 7.15 C3.89 7.41, 3.23 7.3, 2.48 7.05 C1.74 6.8, 0.55 6.29, 0.18 5.65 C-0.19 5.01, 0.02 4, 0.24 3.22 C0.46 2.43, 0.92 1.5, 1.49 0.94 C2.05 0.38, 3.18 -0.05, 3.62 -0.15 C4.07 -0.25, 4.16 0.29, 4.16 0.33 M3.12 -0.29 C3.89 -0.31, 5.19 0.27, 5.85 0.88 C6.51 1.49, 6.97 2.59, 7.06 3.37 C7.15 4.15, 6.78 4.9, 6.41 5.57 C6.05 6.24, 5.48 7.22, 4.86 7.39 C4.25 7.55, 3.46 6.82, 2.73 6.58 C2.01 6.33, 0.88 6.51, 0.5 5.93 C0.11 5.34, 0.29 3.9, 0.43 3.08 C0.57 2.25, 0.8 1.46, 1.35 0.99 C1.91 0.51, 3.33 0.29, 3.75 0.21 C4.17 0.12, 3.92 0.43, 3.87 0.48" stroke="#1e1e1e" stroke-width="1" fill="none"></path></g><g stroke-linecap="round" transform="translate(306.76822227806696 211.314419190189) rotate(0 12.43779953559212 6.304023542482351)"><path d="M0 0 C7.87 0.84, 15.9 0.16, 24.88 0 M0 0 C8.05 0.33, 15.3 -0.33, 24.88 0 M24.88 0 C24.4 4.71, 25.23 8.89, 24.88 12.61 M24.88 0 C24.76 4.6, 25.14 8.45, 24.88 12.61 M24.88 12.61 C18.89 11.62, 12.95 12.42, 0 12.61 M24.88 12.61 C16.75 12.89, 9.31 13.09, 0 12.61 M0 12.61 C0.63 8.54, 0.11 3.62, 0 0 M0 12.61 C0.17 8.81, -0.07 4.59, 0 0" stroke="#1e1e1e" stroke-width="1" fill="none"></path></g><g stroke-linecap="round" transform="translate(306.76822227806696 233.85469440439826) rotate(0 12.43779953559212 6.304023542482351)"><path d="M0 0 C7.46 0.07, 15.65 0.68, 24.88 0 M0 0 C9.6 -0.33, 19.38 0.15, 24.88 0 M24.88 0 C25.14 4.57, 25.08 8.26, 24.88 12.61 M24.88 0 C25.09 3.1, 24.62 6.43, 24.88 12.61 M24.88 12.61 C18.21 12.37, 12.82 12.25, 0 12.61 M24.88 12.61 C15.27 13.03, 6.05 12.19, 0 12.61 M0 12.61 C-0.01 8.97, 0.08 5.32, 0 0 M0 12.61 C-0.08 8.4, -0.33 4.01, 0 0" stroke="#1e1e1e" stroke-width="1" fill="none"></path></g><g transform="translate(295.4256584329257 271.02848297420314) rotate(0 23.399978637695312 12.5)"><text x="23.399978637695312" y="17.52" font-family="Virgil, Segoe UI Emoji" font-size="20px" fill="#1e1e1e" text-anchor="middle" style="white-space: pre;" direction="ltr" dominant-baseline="alphabetic">Login</text></g><g stroke-opacity="0" fill-opacity="0" stroke-linecap="round" transform="translate(678.2016776455938 184.35182892692004) rotate(0 58.378661581835615 58.378661581835615)"><path d="M57.14 0.41 C65.77 -0.54, 77.17 1.41, 85.21 5.5 C93.24 9.59, 100.26 17.53, 105.36 24.95 C110.46 32.38, 114.49 41.03, 115.8 50.03 C117.1 59.02, 116.35 70.17, 113.18 78.92 C110.01 87.67, 103.31 96.64, 96.77 102.54 C90.22 108.45, 82.57 112.12, 73.91 114.35 C65.26 116.57, 53.66 117.96, 44.84 115.9 C36.02 113.84, 27.93 108.14, 21 101.98 C14.06 95.82, 6.72 87.2, 3.23 78.96 C-0.26 70.72, -1.15 61.22, 0.06 52.53 C1.28 43.85, 5.27 34.36, 10.51 26.86 C15.74 19.36, 22.7 11.89, 31.47 7.53 C40.25 3.16, 56.99 1.73, 63.17 0.69 C69.35 -0.35, 68.73 0.41, 68.55 1.27 M70.6 0.24 C78.87 1.35, 88.92 6.76, 95.89 13.05 C102.86 19.34, 109.23 29.33, 112.41 37.97 C115.59 46.62, 116.05 56.17, 114.96 64.92 C113.86 73.67, 110.56 82.99, 105.85 90.48 C101.15 97.97, 94.61 105.32, 86.71 109.85 C78.81 114.37, 67.43 117.39, 58.45 117.62 C49.46 117.84, 40.8 115.7, 32.8 111.2 C24.79 106.7, 15.71 98.05, 10.41 90.62 C5.11 83.19, 1.94 75.36, 1.01 66.6 C0.09 57.84, 1.9 46.8, 4.87 38.05 C7.83 29.3, 12.45 19.93, 18.8 14.11 C25.14 8.3, 33.88 5.18, 42.93 3.17 C51.98 1.16, 68.32 1.91, 73.09 2.05 C77.86 2.2, 72.01 3.4, 71.56 4.05" stroke="#1e1e1e" stroke-width="1" fill="none"></path></g><g transform="translate(705.7303712708864 267.3031120046253) rotate(0 30.84996795654297 12.5)"><text x="30.84996795654297" y="17.52" font-family="Virgil, Segoe UI Emoji" font-size="20px" fill="#1e1e1e" text-anchor="middle" style="white-space: pre;" direction="ltr" dominant-baseline="alphabetic">Server</text></g><g stroke-linecap="round" transform="translate(717.9461592289518 193.15786901288587) rotate(0 18.63417999847718 34.78380266382396)"><path d="M0 0 C10.18 1.18, 22.96 -1.29, 37.27 0 M0 0 C8.37 0.1, 18.38 -0.75, 37.27 0 M37.27 0 C37.14 29.12, 39.3 54.38, 37.27 69.57 M37.27 0 C37.08 15.58, 37.66 30.85, 37.27 69.57 M37.27 69.57 C25.68 68.37, 10.77 69.5, 0 69.57 M37.27 69.57 C23.33 68.38, 10.71 68.34, 0 69.57 M0 69.57 C-0.56 49.84, -1.37 33.33, 0 0 M0 69.57 C0.97 49.81, 0.04 27.95, 0 0" stroke="#1e1e1e" stroke-width="1" fill="none"></path></g><g stroke-linecap="round"><g transform="translate(722.7179020939658 200.85381967884146) rotate(0 14.286204665499099 1.1368683772161603e-13)"><path d="M0.22 0.22 C5 0.21, 23.36 -0.26, 28.12 -0.34 M-0.32 -0.14 C4.66 -0.07, 24.31 0.13, 29.12 0.19" stroke="#1e1e1e" stroke-width="1" fill="none"></path></g></g><mask></mask><g stroke-linecap="round"><g transform="translate(721.8059993951939 207.25761745644982) rotate(0 14.286204665499099 1.1368683772161603e-13)"><path d="M-0.45 -0.34 C4.31 -0.41, 24 -0.29, 28.78 -0.24 M0.31 0.68 C5 0.66, 23.88 0.36, 28.46 0.34" stroke="#1e1e1e" stroke-width="1" fill="none"></path></g></g><mask></mask><g stroke-linecap="round"><g transform="translate(721.9322352714263 213.6614152340591) rotate(0 14.286204665499099 1.1368683772161603e-13)"><path d="M0.21 -0.24 C5 -0.19, 23.5 0.01, 28.28 -0.03 M-0.34 0.83 C4.67 1, 24.52 0.81, 29.36 0.65" stroke="#1e1e1e" stroke-width="1" fill="none"></path></g></g><mask></mask><g stroke-linecap="round"><g transform="translate(721.846699902656 220.0652130116679) rotate(0 14.286204665499099 1.1368683772161603e-13)"><path d="M-0.29 -0.03 C4.49 -0.08, 23.99 -0.58, 28.89 -0.5 M0.56 -0.53 C5.28 -0.5, 23.88 -0.08, 28.62 -0.06" stroke="#1e1e1e" stroke-width="1" fill="none"></path></g></g><mask></mask><g stroke-linecap="round" transform="translate(743.3874088488453 226.9934387077183) rotate(0 3.3205816376434 2.414968463740575)"><path d="M3.76 0.25 C4.43 0.3, 5.66 0.33, 6.09 0.64 C6.53 0.95, 6.41 1.54, 6.36 2.11 C6.31 2.68, 6.16 3.59, 5.79 4.09 C5.42 4.59, 4.76 5.02, 4.13 5.12 C3.5 5.22, 2.63 4.95, 1.99 4.67 C1.36 4.39, 0.58 3.98, 0.31 3.43 C0.05 2.88, 0.21 1.9, 0.41 1.38 C0.61 0.85, 0.92 0.49, 1.53 0.29 C2.14 0.09, 3.71 0.29, 4.07 0.2 C4.43 0.11, 3.8 -0.22, 3.71 -0.24 M2.32 -0.05 C2.96 -0.23, 4.03 -0.21, 4.78 0.06 C5.52 0.33, 6.51 1, 6.78 1.59 C7.04 2.17, 6.59 3.01, 6.36 3.56 C6.13 4.1, 5.99 4.72, 5.38 4.86 C4.77 5, 3.42 4.51, 2.68 4.41 C1.93 4.3, 1.31 4.58, 0.93 4.25 C0.55 3.92, 0.45 3.03, 0.39 2.42 C0.33 1.81, 0.25 0.91, 0.58 0.59 C0.91 0.27, 1.96 0.56, 2.38 0.5 C2.81 0.44, 3.07 0.19, 3.13 0.22" stroke="#1e1e1e" stroke-width="1" fill="none"></path></g><g stroke-opacity="0" fill-opacity="0" stroke-linecap="round" transform="translate(1105.1168516016423 176.44427603175063) rotate(0 58.378661581835615 58.378661581835615)"><path d="M80.54 4.34 C88.62 6.74, 96.31 14.23, 102.1 21.22 C107.88 28.2, 113.02 37.58, 115.26 46.24 C117.5 54.91, 117.98 64.46, 115.53 73.2 C113.08 81.95, 106.86 91.9, 100.58 98.71 C94.31 105.52, 86.38 111.02, 77.88 114.04 C69.38 117.06, 58.41 118.12, 49.59 116.8 C40.77 115.48, 32.14 111.39, 24.95 106.1 C17.76 100.82, 10.59 93.31, 6.46 85.08 C2.33 76.84, -0.14 66.04, 0.17 56.69 C0.47 47.35, 3.88 36.77, 8.28 29.01 C12.68 21.26, 19.23 14.78, 26.56 10.15 C33.89 5.51, 41.47 1.37, 52.25 1.21 C63.04 1.04, 83.48 6.29, 91.25 9.15 C99.02 12.02, 99.57 17.54, 98.86 18.42 M63.68 1.68 C72.24 2, 82.35 5.15, 90.17 10.14 C97.98 15.13, 106.04 23.94, 110.54 31.63 C115.05 39.31, 117.12 47.3, 117.2 56.25 C117.27 65.2, 114.99 77.17, 111 85.33 C107 93.48, 100.76 100.23, 93.24 105.19 C85.71 110.16, 74.72 113.84, 65.87 115.12 C57.01 116.39, 48.64 115.77, 40.11 112.84 C31.58 109.91, 21.06 104.33, 14.69 97.55 C8.31 90.78, 3.84 80.94, 1.87 72.19 C-0.1 63.45, 0.9 53.44, 2.87 45.09 C4.84 36.73, 7.89 28.84, 13.67 22.08 C19.45 15.32, 28.95 8.31, 37.56 4.53 C46.17 0.75, 61.15 0.05, 65.33 -0.58 C69.51 -1.21, 62.81 -0.3, 62.64 0.74" stroke="#1e1e1e" stroke-width="1" fill="none"></path></g><g transform="translate(1114.0555488890443 253.18076322969227) rotate(0 49.439964294433594 12.5)"><text x="49.439964294433594" y="17.52" font-family="Virgil, Segoe UI Emoji" font-size="20px" fill="#1e1e1e" text-anchor="middle" style="white-space: pre;" direction="ltr" dominant-baseline="alphabetic">Database</text></g><g stroke-linecap="round"><g transform="translate(1138.5826976566184 209.52026774538842) rotate(0 21.45164646798804 11.061600613996625)"><path d="M0.82 0.17 C0.67 4.65, -0.2 21.69, 0.03 27.22 C0.26 32.74, 0.89 31.33, 2.22 33.3 C3.55 35.27, 5.86 37.91, 8 39.03 C10.13 40.15, 11.9 39.77, 15.04 40.01 C18.18 40.26, 23.38 41.11, 26.85 40.49 C30.31 39.87, 33.34 37.46, 35.84 36.3 C38.34 35.14, 40.65 34.93, 41.83 33.52 C43.02 32.11, 42.63 31.61, 42.95 27.82 C43.28 24.02, 43.85 16.17, 43.79 10.75 C43.72 5.32, 42.97 -1.04, 42.57 -4.74 C42.17 -8.44, 42.08 -9.54, 41.38 -11.44 C40.68 -13.35, 40.63 -15.07, 38.37 -16.18 C36.11 -17.29, 31.87 -17.65, 27.83 -18.08 C23.78 -18.52, 17.75 -19.04, 14.13 -18.8 C10.51 -18.56, 8.33 -17.82, 6.1 -16.63 C3.87 -15.43, 1.73 -13.11, 0.74 -11.63 C-0.25 -10.15, 0.35 -9.87, 0.16 -7.74 C-0.03 -5.62, -0.34 -0.24, -0.42 1.11 M-0.22 -0.79 C-0.6 3.78, -1.23 22.3, -0.9 28.18 C-0.57 34.07, 0.19 33.07, 1.76 34.54 C3.33 36.01, 6.01 36.07, 8.54 36.99 C11.06 37.91, 14.17 39.64, 16.9 40.06 C19.64 40.49, 21.63 39.81, 24.96 39.53 C28.28 39.26, 34.15 39.36, 36.86 38.39 C39.57 37.43, 40.43 35.69, 41.22 33.74 C42.01 31.79, 41.56 30.59, 41.59 26.7 C41.63 22.81, 41.23 15.98, 41.41 10.39 C41.6 4.8, 42.45 -3.14, 42.72 -6.83 C42.98 -10.52, 43.63 -10.01, 43 -11.76 C42.38 -13.51, 41.53 -16.27, 38.98 -17.31 C36.43 -18.36, 31.87 -17.66, 27.71 -18.03 C23.55 -18.41, 17.41 -19.93, 14 -19.55 C10.59 -19.17, 9.68 -17.21, 7.23 -15.75 C4.78 -14.28, 0.69 -12.05, -0.7 -10.75 C-2.09 -9.46, -1.49 -9.48, -1.1 -7.97 C-0.71 -6.46, 1.45 -2.84, 1.64 -1.71" stroke="#1e1e1e" stroke-width="1" fill="none"></path></g></g><mask></mask><g stroke-linecap="round"><g transform="translate(1138.9110391841896 199.73218135861111) rotate(0 21.396922880059492 4.432610622211809)"><path d="M0.01 -0.5 C0.76 0.34, 2.29 3.5, 4.86 5.08 C7.44 6.66, 11.91 8.41, 15.47 8.99 C19.02 9.57, 22.66 9.07, 26.21 8.57 C29.75 8.06, 33.94 7.26, 36.76 5.98 C39.58 4.7, 42.05 1.63, 43.12 0.9 M-0.64 0.44 C0.02 1.35, 1.92 4.46, 4.57 5.74 C7.22 7.03, 11.65 7.63, 15.25 8.16 C18.85 8.69, 22.67 9.24, 26.17 8.91 C29.67 8.59, 33.57 7.63, 36.25 6.2 C38.94 4.76, 41.31 1.16, 42.26 0.33" stroke="#1e1e1e" stroke-width="1" fill="none"></path></g></g><mask></mask><g stroke-linecap="round"><g transform="translate(1138.5596387352812 208.99546150714332) rotate(0 21.396922880059492 4.432610622211809)"><path d="M0.27 -0.07 C1.07 0.95, 2.41 4.21, 4.85 5.6 C7.3 6.98, 11.27 7.68, 14.93 8.24 C18.59 8.79, 23.16 9.36, 26.8 8.94 C30.44 8.52, 34.05 6.94, 36.77 5.72 C39.5 4.49, 42.11 2.31, 43.16 1.58 M-0.26 -0.58 C0.49 0.34, 2.1 3.32, 4.55 4.86 C7 6.41, 10.68 7.91, 14.44 8.68 C18.19 9.45, 23.44 9.96, 27.08 9.47 C30.71 8.99, 33.73 7.15, 36.27 5.79 C38.81 4.44, 41.11 2.18, 42.32 1.36" stroke="#1e1e1e" stroke-width="1" fill="none"></path></g></g><mask></mask><g stroke-linecap="round"><g transform="translate(1138.2588185947327 215.7067066147306) rotate(0 21.396922880059492 4.432610622211809)"><path d="M0.25 0.45 C0.93 1.27, 1.77 3.49, 4.32 4.84 C6.86 6.2, 11.78 7.97, 15.53 8.61 C19.28 9.25, 23.27 9.04, 26.81 8.67 C30.36 8.3, 34.1 7.62, 36.81 6.4 C39.52 5.17, 41.99 2.19, 43.07 1.32 M-0.28 0.21 C0.56 1.1, 2.8 3.88, 5.4 5.39 C8.01 6.9, 11.73 8.63, 15.34 9.24 C18.96 9.86, 23.59 9.75, 27.09 9.07 C30.59 8.39, 33.81 6.51, 36.32 5.16 C38.84 3.81, 41.22 1.73, 42.19 0.97" stroke="#1e1e1e" stroke-width="1" fill="none"></path></g></g><mask></mask><g transform="translate(397.8472358469785 186.74472984935755) rotate(0 115.81883541685598 12.5)"><text x="0" y="17.52" font-family="Virgil, Segoe UI Emoji" font-size="20px" fill="#1e1e1e" text-anchor="start" style="white-space: pre;" direction="ltr" dominant-baseline="alphabetic">POST /loging (request)</text></g><g transform="translate(42.93063285819932 208.22394974459183) rotate(0 84.55844197550718 35.061862255465485)"><text x="0" y="9.828541227452083" font-family="Virgil, Segoe UI Emoji" font-size="11.219795921748954px" fill="#1e1e1e" text-anchor="start" style="white-space: pre;" direction="ltr" dominant-baseline="alphabetic">credentials:</text><text x="0" y="23.853286129638278" font-family="Virgil, Segoe UI Emoji" font-size="11.219795921748954px" fill="#1e1e1e" text-anchor="start" style="white-space: pre;" direction="ltr" dominant-baseline="alphabetic">{   </text><text x="0" y="37.87803103182447" font-family="Virgil, Segoe UI Emoji" font-size="11.219795921748954px" fill="#1e1e1e" text-anchor="start" style="white-space: pre;" direction="ltr" dominant-baseline="alphabetic">    email: "JohnDoe@gmail.com"</text><text x="0" y="51.90277593401066" font-family="Virgil, Segoe UI Emoji" font-size="11.219795921748954px" fill="#1e1e1e" text-anchor="start" style="white-space: pre;" direction="ltr" dominant-baseline="alphabetic">    password: "admin123"</text><text x="0" y="65.92752083619685" font-family="Virgil, Segoe UI Emoji" font-size="11.219795921748954px" fill="#1e1e1e" text-anchor="start" style="white-space: pre;" direction="ltr" dominant-baseline="alphabetic">}</text></g><g stroke-linecap="round"><g transform="translate(220.68885897591167 239.03607011342598) rotate(0 32.677399021919456 -0.5553866291050635)"><path d="M-0.12 -1.17 C10.88 -1.3, 54.84 -0.45, 65.57 -0.3" stroke="#1e1e1e" stroke-width="2.5" fill="none" stroke-dasharray="1.5 8"></path></g><g transform="translate(220.68885897591167 239.03607011342598) rotate(0 32.677399021919456 -0.5553866291050635)"><path d="M66.56 1.68 L50.64 6.33 L50.44 -6.98 L64 -2.13" stroke="none" stroke-width="0" fill="#f8f9fa" fill-rule="evenodd"></path><path d="M65.57 -0.3 C60.53 1.57, 59.41 1.54, 51.87 5.81 M51.87 5.81 C52.83 0.61, 50.97 -3.35, 52.09 -6.86 M52.09 -6.86 C58.36 -3.74, 60.51 -2.53, 65.57 -0.3 M65.57 -0.3 C65.57 -0.3, 65.57 -0.3, 65.57 -0.3" stroke="#1e1e1e" stroke-width="2.5" fill="none"></path></g></g><mask></mask><g transform="translate(424.871255759976 214.92728816187804) rotate(0 84.55844197550718 35.061862255465485)"><text x="0" y="9.828541227452083" font-family="Virgil, Segoe UI Emoji" font-size="11.219795921748954px" fill="#1e1e1e" text-anchor="start" style="white-space: pre;" direction="ltr" dominant-baseline="alphabetic">Body:</text><text x="0" y="23.853286129638278" font-family="Virgil, Segoe UI Emoji" font-size="11.219795921748954px" fill="#1e1e1e" text-anchor="start" style="white-space: pre;" direction="ltr" dominant-baseline="alphabetic">{   </text><text x="0" y="37.87803103182447" font-family="Virgil, Segoe UI Emoji" font-size="11.219795921748954px" fill="#1e1e1e" text-anchor="start" style="white-space: pre;" direction="ltr" dominant-baseline="alphabetic">    email: "JohnDoe@gmail.com",</text><text x="0" y="51.90277593401066" font-family="Virgil, Segoe UI Emoji" font-size="11.219795921748954px" fill="#1e1e1e" text-anchor="start" style="white-space: pre;" direction="ltr" dominant-baseline="alphabetic">    password: "admin123"</text><text x="0" y="65.92752083619685" font-family="Virgil, Segoe UI Emoji" font-size="11.219795921748954px" fill="#1e1e1e" text-anchor="start" style="white-space: pre;" direction="ltr" dominant-baseline="alphabetic">}</text></g><g stroke-linecap="round"><g transform="translate(350.71500088049584 239.7968128741355) rotate(0 31.06190889876578 0.24850301240515016)"><path d="M-0.31 -0.32 C9.77 -0.24, 51.19 1.44, 61.61 1.44 M1.73 -1.53 C11.51 -1.85, 50.43 -0.54, 60.39 -0.19" stroke="#1e1e1e" stroke-width="2" fill="none"></path></g><g transform="translate(350.71500088049584 239.7968128741355) rotate(0 31.06190889876578 0.24850301240515016)"><path d="M59.67 -0.83 L46.49 6 L48.05 -8.78 L61.21 -1.72" stroke="none" stroke-width="0" fill="#f8f9fa" fill-rule="evenodd"></path><path d="M60.39 -0.19 C54.61 1.45, 50.76 4.5, 46.59 5.69 M60.39 -0.19 C56.78 1.39, 54.41 2.66, 46.59 5.69 M46.59 5.69 C47.41 2.52, 46.22 -1.36, 47.01 -6.98 M46.59 5.69 C46.87 2.49, 46.29 -2.1, 47.01 -6.98 M47.01 -6.98 C49.6 -5.01, 54.66 -4.87, 60.39 -0.19 M47.01 -6.98 C51.08 -4.13, 55.54 -1.69, 60.39 -0.19 M60.39 -0.19 C60.39 -0.19, 60.39 -0.19, 60.39 -0.19 M60.39 -0.19 C60.39 -0.19, 60.39 -0.19, 60.39 -0.19" stroke="#1e1e1e" stroke-width="2" fill="none"></path></g></g><mask></mask><g stroke-linecap="round"><g transform="translate(605.1742442664273 239.79684624144164) rotate(0 50.94156596332033 0.4969893411572297)"><path d="M-0.02 -1.01 C17.05 -1.04, 85.96 0.29, 102.93 0.74 M-1.48 1.08 C15.47 1.14, 85.45 2.37, 102.54 2.15" stroke="#1e1e1e" stroke-width="2" fill="none"></path></g><g transform="translate(605.1742442664273 239.79684624144164) rotate(0 50.94156596332033 0.4969893411572297)"><path d="M102.63 2.07 L88.68 7.39 L87.76 -5.79 L103.02 1.23" stroke="none" stroke-width="0" fill="#f8f9fa" fill-rule="evenodd"></path><path d="M102.54 2.15 C96.61 5.63, 92.84 6.41, 88.91 8.43 M102.54 2.15 C98.19 5.24, 92.65 6.8, 88.91 8.43 M88.91 8.43 C88.82 4.94, 88.25 1.78, 88.97 -4.25 M88.91 8.43 C88.71 4.93, 88.29 0.71, 88.97 -4.25 M88.97 -4.25 C95.55 -1.76, 100.66 -0.84, 102.54 2.15 M88.97 -4.25 C93.21 -1.69, 98.47 -0.2, 102.54 2.15 M102.54 2.15 C102.54 2.15, 102.54 2.15, 102.54 2.15 M102.54 2.15 C102.54 2.15, 102.54 2.15, 102.54 2.15" stroke="#1e1e1e" stroke-width="2" fill="none"></path></g></g><mask></mask><g stroke-linecap="round"><g transform="translate(864.9251329222429 181.40161725976378) rotate(0 68.98083311152706 14.469919277941727)"><path d="M-0.84 0.43 C22.39 5.18, 115.71 23.68, 138.73 28.25 M0.92 -0.4 C24.12 4.53, 115.64 24.59, 138.19 29.42" stroke="#1e1e1e" stroke-width="1" fill="none"></path></g><g transform="translate(864.9251329222429 181.40161725976378) rotate(0 68.98083311152706 14.469919277941727)"><path d="M136.87 30.01 L124.38 33.11 L126.15 21.05 L137.71 30.11" stroke="none" stroke-width="0" fill="#f8f9fa" fill-rule="evenodd"></path><path d="M138.19 29.42 C135.11 31.09, 130.12 30.12, 123.56 32.73 M138.19 29.42 C135.48 29.38, 132.52 30.11, 123.56 32.73 M123.56 32.73 C123.42 30.18, 123.67 26.93, 126.24 20.34 M123.56 32.73 C125.16 28.16, 125 23.28, 126.24 20.34 M126.24 20.34 C128.25 23.92, 131.99 25.48, 138.19 29.42 M126.24 20.34 C128.56 22.33, 132.23 24.77, 138.19 29.42 M138.19 29.42 C138.19 29.42, 138.19 29.42, 138.19 29.42 M138.19 29.42 C138.19 29.42, 138.19 29.42, 138.19 29.42" stroke="#1e1e1e" stroke-width="1" fill="none"></path></g></g><mask></mask><g transform="translate(887.3698451356313 182.31739486306518) rotate(11.765800683587726 41.535811178759474 4.722710510326582)"><text x="0" y="6.619351051273736" font-family="Virgil, Segoe UI Emoji" font-size="7.5563368165225295px" fill="#1e1e1e" text-anchor="start" style="white-space: pre;" direction="ltr" dominant-baseline="alphabetic">is this guy in the db?</text></g><g stroke-opacity="0" fill-opacity="0" stroke-linecap="round" transform="translate(921.1291679400028 202.88734180039583) rotate(0 10.11355370328124 10.113553703281246)"><path d="M9.61 -0.45 C11.7 -0.84, 14.4 0.19, 16.11 1.5 C17.82 2.81, 19.29 5.29, 19.87 7.41 C20.45 9.54, 20.54 12.23, 19.57 14.25 C18.61 16.27, 16.09 18.62, 14.08 19.51 C12.07 20.39, 9.63 20.22, 7.5 19.54 C5.38 18.87, 2.56 17.21, 1.31 15.45 C0.05 13.7, -0.31 11.16, -0.03 9.02 C0.25 6.88, 1.32 4.19, 2.98 2.61 C4.64 1.02, 8.82 -0.02, 9.94 -0.48 C11.06 -0.93, 9.69 -0.43, 9.73 -0.13 M11.17 0.38 C13.14 0.68, 16.27 2.23, 17.67 3.73 C19.07 5.24, 19.59 7.29, 19.58 9.41 C19.58 11.52, 18.78 14.62, 17.65 16.43 C16.52 18.24, 14.84 19.83, 12.8 20.29 C10.77 20.74, 7.35 20.29, 5.44 19.14 C3.53 17.99, 2.1 15.38, 1.33 13.41 C0.57 11.44, 0.21 9.21, 0.85 7.32 C1.49 5.44, 3.4 3.2, 5.17 2.08 C6.93 0.96, 10.33 0.86, 11.45 0.61 C12.57 0.37, 12.02 0.51, 11.89 0.59" stroke="none" stroke-width="0" fill="#b2f2bb"></path><path d="M10.27 -0.41 C12.29 -0.5, 14.96 1.18, 16.68 2.73 C18.4 4.28, 20.3 6.7, 20.62 8.9 C20.94 11.1, 19.86 14.13, 18.62 15.93 C17.38 17.74, 15.17 19.13, 13.19 19.72 C11.21 20.31, 8.69 20.35, 6.74 19.49 C4.8 18.63, 2.59 16.45, 1.52 14.54 C0.45 12.63, -0.02 10.16, 0.32 8.02 C0.66 5.88, 1.87 2.99, 3.56 1.71 C5.25 0.43, 9.24 0.68, 10.46 0.36 C11.67 0.04, 10.85 -0.4, 10.87 -0.22 M9.93 0.59 C12.02 0.33, 14.97 1.16, 16.52 2.38 C18.07 3.59, 18.87 5.77, 19.24 7.86 C19.61 9.95, 19.5 12.89, 18.74 14.93 C17.99 16.98, 16.69 19.21, 14.71 20.12 C12.74 21.02, 9.14 21.07, 6.89 20.36 C4.64 19.66, 2.28 17.77, 1.21 15.87 C0.15 13.96, 0.2 11.02, 0.49 8.93 C0.77 6.84, 1.51 4.8, 2.93 3.35 C4.35 1.89, 7.96 0.84, 9.01 0.21 C10.06 -0.42, 9.16 -0.52, 9.25 -0.44" stroke="#2f9e44" stroke-width="1" fill="none"></path></g><g stroke-linecap="round"><g transform="translate(936.3522747305653 205.1913745537558) rotate(0 -5.355689631119645 5.871034705328643)" fill-rule="evenodd"><path d="M-1.51 -0.21 C-2.51 1.14, -3.93 5.94, -4.88 7.8 C-5.83 9.65, -6.54 10.9, -7.23 10.91 C-7.91 10.92, -8.53 8.51, -8.98 7.84 C-9.43 7.17, -9.46 6.68, -9.91 6.89 C-10.37 7.1, -11.84 8.17, -11.74 9.08 C-11.63 9.99, -10.48 11.74, -9.3 12.36 C-8.12 12.97, -5.79 14.05, -4.67 12.78 C-3.55 11.51, -3.21 6.78, -2.6 4.72 C-1.98 2.66, -1.57 1.22, -0.99 0.42" stroke="none" stroke-width="0" fill="#b2f2bb" fill-rule="evenodd"></path><path d="M0.08 0.1 C-0.92 1.49, -4.49 6.36, -5.82 7.96 C-7.15 9.57, -7.26 9.88, -7.91 9.74 C-8.56 9.6, -9.27 7.76, -9.71 7.14 C-10.14 6.51, -10.51 5.7, -10.5 5.99 C-10.5 6.28, -10.01 7.82, -9.67 8.86 C-9.32 9.89, -9.04 11.75, -8.42 12.2 C-7.8 12.66, -6.99 13.02, -5.97 11.58 C-4.94 10.15, -3.24 5.6, -2.25 3.61 C-1.25 1.62, -0.28 0.29, 0.02 -0.37 M-0.55 -0.32 C-1.59 1.17, -4.99 6.79, -6.04 8.55 C-7.08 10.31, -6.25 10.61, -6.83 10.22 C-7.41 9.84, -8.81 6.93, -9.52 6.25 C-10.22 5.57, -10.91 5.78, -11.06 6.13 C-11.22 6.48, -10.92 7.41, -10.43 8.36 C-9.94 9.31, -8.8 11.28, -8.13 11.83 C-7.47 12.37, -7.53 13.08, -6.43 11.62 C-5.33 10.15, -2.66 5.1, -1.52 3.04 C-0.39 0.97, 0.21 -0.25, 0.37 -0.76" stroke="#2f9e44" stroke-width="1" fill="none"></path></g></g><mask></mask><g stroke-linecap="round"><g transform="translate(1002.4670693820708 272.73177297323326) rotate(0 -67.09093447269515 7.949868774069596)"><path d="M-0.33 -0.01 C-22.67 2.56, -110.84 13.15, -133.03 15.74 M1.7 -1.07 C-20.78 1.67, -110.79 14.25, -133.38 17.19" stroke="#1e1e1e" stroke-width="1" fill="none"></path></g><g transform="translate(1002.4670693820708 272.73177297323326) rotate(0 -67.09093447269515 7.949868774069596)"><path d="M-134.28 17.51 L-119.68 9.15 L-117.25 23.23 L-132.27 16.42" stroke="none" stroke-width="0" fill="#f8f9fa" fill-rule="evenodd"></path><path d="M-133.38 17.19 C-128.57 15.55, -123.92 11.91, -120.76 9.08 M-133.38 17.19 C-130.71 14.87, -126.24 13.42, -120.76 9.08 M-120.76 9.08 C-119.78 11.09, -119.29 14.03, -119.06 21.64 M-120.76 9.08 C-120.2 12.72, -119.47 15.92, -119.06 21.64 M-119.06 21.64 C-124.88 21.33, -128.53 18.06, -133.38 17.19 M-119.06 21.64 C-122.39 21.17, -126.41 19.56, -133.38 17.19 M-133.38 17.19 C-133.38 17.19, -133.38 17.19, -133.38 17.19 M-133.38 17.19 C-133.38 17.19, -133.38 17.19, -133.38 17.19" stroke="#1e1e1e" stroke-width="1" fill="none"></path></g></g><mask></mask><g stroke-linecap="round"><g transform="translate(1002.0209444106995 210.62498211408618) rotate(0 -67.83192511450497 12.270514763743662)"><path d="M-0.26 -0.5 C-22.68 3.52, -111.78 20.11, -134.54 24.27 M1.8 -1.81 C-20.67 2.38, -112.17 21.07, -134.89 25.67" stroke="#1e1e1e" stroke-width="1" fill="none"></path></g><g transform="translate(1002.0209444106995 210.62498211408618) rotate(0 -67.83192511450497 12.270514763743662)"><path d="M-133.24 25.69 L-124.02 15.31 L-122.08 28.87 L-135.95 25.24" stroke="none" stroke-width="0" fill="#f8f9fa" fill-rule="evenodd"></path><path d="M-134.89 25.67 C-131.95 24.46, -128.08 18.97, -122.83 16.75 M-134.89 25.67 C-131.98 23.06, -127.61 20.65, -122.83 16.75 M-122.83 16.75 C-123.39 18.74, -121.05 23.22, -120.31 29.17 M-122.83 16.75 C-122.01 21.4, -121.54 24.54, -120.31 29.17 M-120.31 29.17 C-127.12 28.16, -132.53 26.68, -134.89 25.67 M-120.31 29.17 C-125.13 28.53, -130.21 26.84, -134.89 25.67 M-134.89 25.67 C-134.89 25.67, -134.89 25.67, -134.89 25.67 M-134.89 25.67 C-134.89 25.67, -134.89 25.67, -134.89 25.67" stroke="#1e1e1e" stroke-width="1" fill="none"></path></g></g><mask></mask><g stroke-linecap="round"><g transform="translate(867.0238883899362 171.01732261127938) rotate(0 0 61.594989282584855)"><path d="M0.99 -0.58 C1.01 19.7, 0.77 102.05, 0.46 122.71 M0.04 1.73 C-0.07 22.69, -0.5 103.48, -0.25 124" stroke="#1e1e1e" stroke-width="1" fill="none"></path></g></g><mask></mask><g stroke-linecap="round"><g transform="translate(1004.1708417990052 170.43894743539994) rotate(0 0 61.67257659241396)"><path d="M-0.54 0.31 C-0.69 20.78, 0.18 103.55, 0.27 124.02 M1.38 -0.57 C0.99 20.06, -0.18 101.43, -0.54 122.25" stroke="#1e1e1e" stroke-width="1" fill="none"></path></g></g><mask></mask><g stroke-linecap="round"><g transform="translate(867.0770354663282 235.42824965388263) rotate(0 68.11849709926855 18.45165156802659)"><path d="M0.06 -0.45 C22.92 5.68, 113.57 30.93, 136.25 37.21 M-1.37 -1.74 C21.42 3.98, 112.53 28.51, 135.31 35.25" stroke="#1e1e1e" stroke-width="1" fill="none"></path></g><g transform="translate(867.0770354663282 235.42824965388263) rotate(0 68.11849709926855 18.45165156802659)"><path d="M134.17 33.94 L122.18 36.83 L123.31 27.23 L135.55 33.62" stroke="none" stroke-width="0" fill="#f8f9fa" fill-rule="evenodd"></path><path d="M135.31 35.25 C131.44 35.82, 129.07 36.22, 120.51 37.68 M135.31 35.25 C130.53 36.37, 125.65 36.82, 120.51 37.68 M120.51 37.68 C122.67 33.97, 122.1 29.55, 123.93 25.47 M120.51 37.68 C121.22 32.9, 122.94 29.07, 123.93 25.47 M123.93 25.47 C128.66 27.8, 130.17 30.54, 135.31 35.25 M123.93 25.47 C126.45 27.91, 130.25 30.4, 135.31 35.25 M135.31 35.25 C135.31 35.25, 135.31 35.25, 135.31 35.25 M135.31 35.25 C135.31 35.25, 135.31 35.25, 135.31 35.25" stroke="#1e1e1e" stroke-width="1" fill="none"></path></g></g><mask></mask><g transform="translate(896.3067483928457 243.83752730762038) rotate(14.931443780900237 49.42688067618525 4.722710510326582)"><text x="0" y="6.619351051273736" font-family="Virgil, Segoe UI Emoji" font-size="7.5563368165225295px" fill="#1e1e1e" text-anchor="start" style="white-space: pre;" direction="ltr" dominant-baseline="alphabetic">is his password correct?</text></g><g stroke-opacity="0" fill-opacity="0" stroke-linecap="round" transform="translate(919.6148291014762 260.91873721267194) rotate(0 10.11355370328124 10.113553703281248)"><path d="M7.66 0.19 C9.62 -0.37, 12.68 0.03, 14.7 1 C16.71 1.98, 18.86 3.93, 19.75 6.03 C20.65 8.14, 20.71 11.55, 20.07 13.65 C19.43 15.75, 17.79 17.48, 15.89 18.61 C13.99 19.73, 10.93 20.62, 8.67 20.39 C6.42 20.16, 3.79 18.92, 2.35 17.21 C0.92 15.5, 0.12 12.31, 0.05 10.14 C-0.02 7.97, 0.57 5.93, 1.93 4.19 C3.28 2.45, 7.05 0.37, 8.19 -0.33 C9.32 -1.02, 8.63 -0.26, 8.73 0.03 M11.97 -0.54 C13.9 -0.29, 15.99 2.49, 17.44 4.4 C18.89 6.31, 20.63 8.86, 20.67 10.9 C20.71 12.95, 19.06 15.12, 17.69 16.69 C16.32 18.26, 14.49 20.04, 12.44 20.34 C10.39 20.65, 7.31 19.75, 5.41 18.51 C3.52 17.27, 1.97 15.02, 1.09 12.92 C0.21 10.82, -0.63 7.89, 0.14 5.89 C0.92 3.89, 3.64 1.9, 5.73 0.92 C7.82 -0.07, 11.76 -0.01, 12.68 -0.05 C13.61 -0.08, 11.5 0.49, 11.3 0.71" stroke="none" stroke-width="0" fill="#b2f2bb"></path><path d="M7.9 0.48 C9.91 -0.06, 12.85 0.2, 14.71 1.09 C16.57 1.98, 18.15 3.9, 19.06 5.83 C19.98 7.76, 20.69 10.61, 20.2 12.67 C19.7 14.74, 18.01 17.01, 16.1 18.23 C14.18 19.46, 11.01 20.31, 8.71 20.04 C6.4 19.76, 3.72 18.18, 2.25 16.59 C0.78 14.99, 0 12.65, -0.1 10.48 C-0.19 8.31, 0.28 5.27, 1.66 3.57 C3.05 1.87, 7 0.78, 8.19 0.27 C9.39 -0.24, 8.85 0.39, 8.84 0.49 M8.68 -0.26 C10.66 -0.85, 12.51 0.47, 14.22 1.62 C15.92 2.76, 18.12 4.56, 18.92 6.6 C19.71 8.64, 19.52 11.76, 18.98 13.86 C18.45 15.95, 17.34 18.19, 15.74 19.19 C14.13 20.19, 11.62 20.13, 9.36 19.85 C7.11 19.57, 3.77 19.17, 2.21 17.5 C0.66 15.82, -0.08 12.13, 0.02 9.78 C0.12 7.44, 1.38 5.13, 2.79 3.42 C4.2 1.71, 7.63 -0.02, 8.47 -0.47 C9.31 -0.91, 7.87 0.33, 7.84 0.73" stroke="#2f9e44" stroke-width="1" fill="none"></path></g><g stroke-linecap="round"><g transform="translate(934.8379358920389 263.2227699660319) rotate(0 -5.355689631119645 5.871034705328643)" fill-rule="evenodd"><path d="M0.46 -0.61 C-0.8 0.31, -5.75 4.84, -7.33 6.85 C-8.9 8.87, -8.79 11.7, -9 11.49 C-9.2 11.27, -8.01 6.33, -8.56 5.57 C-9.1 4.82, -11.78 6.31, -12.26 6.94 C-12.75 7.57, -11.86 8.37, -11.48 9.37 C-11.1 10.37, -11.03 12.47, -9.99 12.94 C-8.95 13.42, -6.87 13.89, -5.26 12.22 C-3.64 10.55, -1.06 4.7, -0.31 2.91 C0.45 1.12, -0.79 2.17, -0.73 1.46" stroke="none" stroke-width="0" fill="#b2f2bb" fill-rule="evenodd"></path><path d="M-0.49 -0.19 C-1.58 1.24, -5.45 6.53, -6.57 8.22 C-7.69 9.91, -6.66 10.28, -7.21 9.95 C-7.76 9.61, -9.23 6.76, -9.88 6.19 C-10.53 5.62, -10.98 5.99, -11.11 6.53 C-11.23 7.08, -11.01 8.61, -10.63 9.45 C-10.25 10.29, -9.58 11.37, -8.82 11.58 C-8.06 11.79, -7.17 12.08, -6.09 10.72 C-5.01 9.35, -3.34 5.23, -2.35 3.38 C-1.36 1.52, -0.46 0.12, -0.15 -0.43 M0.25 -0.76 C-0.66 0.79, -4.22 7.06, -5.5 8.94 C-6.78 10.83, -6.72 10.95, -7.43 10.54 C-8.14 10.13, -9.3 7.36, -9.78 6.48 C-10.26 5.61, -10.24 4.82, -10.31 5.28 C-10.39 5.75, -10.49 8.04, -10.22 9.25 C-9.96 10.47, -9.34 12.09, -8.74 12.55 C-8.14 13, -7.8 13.61, -6.62 11.97 C-5.44 10.33, -2.8 4.54, -1.67 2.69 C-0.55 0.83, -0.06 1.17, 0.13 0.82" stroke="#2f9e44" stroke-width="1" fill="none"></path></g></g><mask></mask><g stroke-linecap="round"><g transform="translate(765.0671558857116 241.32401317684906) rotate(0 38.4429274849836 0.16141078603761372)"><path d="M1.16 -0.32 C13.96 -0.52, 64.44 -0.61, 77.21 -0.46 M0.3 -1.53 C12.94 -1.66, 63.57 0.08, 76.44 0.67" stroke="#1e1e1e" stroke-width="2" fill="none"></path></g><g transform="translate(765.0671558857116 241.32401317684906) rotate(0 38.4429274849836 0.16141078603761372)"><path d="M75.86 2.13 L62.12 6.9 L61.46 -6.65 L75.01 1.83" stroke="none" stroke-width="0" fill="#f8f9fa" fill-rule="evenodd"></path><path d="M76.44 0.67 C71.46 3.15, 66.26 5.8, 62.61 6.48 M76.44 0.67 C72.67 2.64, 67.8 4.04, 62.61 6.48 M62.61 6.48 C61.83 3.25, 64.14 0.49, 63.09 -6.19 M62.61 6.48 C62.42 0.99, 62.35 -3.43, 63.09 -6.19 M63.09 -6.19 C68.44 -4.24, 72.4 -1.93, 76.44 0.67 M63.09 -6.19 C65.71 -4.17, 69.78 -3.05, 76.44 0.67 M76.44 0.67 C76.44 0.67, 76.44 0.67, 76.44 0.67 M76.44 0.67 C76.44 0.67, 76.44 0.67, 76.44 0.67" stroke="#1e1e1e" stroke-width="2" fill="none"></path></g></g><mask></mask><g stroke-linecap="round" transform="translate(849.7899581252334 151.41034941039072) rotate(0 86.06234220092924 82.67997720334454)"><path d="M0 0 C60.36 -0.05, 120.28 2.72, 172.12 0 M172.12 0 C172.25 39.97, 171.83 83.18, 172.12 165.36 M172.12 165.36 C134.38 165.1, 95.08 166.43, 0 165.36 M0 165.36 C1.83 120.14, -0.48 72.79, 0 0" stroke="#1e1e1e" stroke-width="2.5" fill="none" stroke-dasharray="8 10"></path></g><g stroke-linecap="round"><g transform="translate(1032.0281355757875 244.58424925093885) rotate(0 32.16089651979729 0)"><path d="M0 0 C18.77 1.34, 35.37 0.8, 64.32 0 M0 0 C22.8 -0.12, 45.08 0.51, 64.32 0" stroke="#1e1e1e" stroke-width="2" fill="none"></path></g><g transform="translate(1032.0281355757875 244.58424925093885) rotate(0 32.16089651979729 0)"><path d="M1.86 -1.43 L12.04 -4.84 L11.71 6.28 L-0.57 -0.74" stroke="none" stroke-width="0" fill="#f8f9fa" fill-rule="evenodd"></path><path d="M0 0 C4.23 -1.02, 6.88 -3.17, 13.69 -6.14 M0 0 C5.04 -2.11, 9.75 -3.77, 13.69 -6.14 M13.69 -6.14 C12.74 -2.74, 14.62 2.14, 13.5 6.54 M13.69 -6.14 C14.02 -3.3, 13.01 1.18, 13.5 6.54 M13.5 6.54 C9.9 4.94, 7.15 2.08, 0 0 M13.5 6.54 C10.37 5.09, 7.21 2.83, 0 0 M0 0 C0 0, 0 0, 0 0 M0 0 C0 0, 0 0, 0 0" stroke="#1e1e1e" stroke-width="2" fill="none"></path></g><g transform="translate(1032.0281355757875 244.58424925093885) rotate(0 32.16089651979729 0)"><path d="M66.18 -1.43 L49.16 7.79 L48.87 -6.45 L63.75 -0.74" stroke="none" stroke-width="0" fill="#f8f9fa" fill-rule="evenodd"></path><path d="M64.32 0 C60.91 2.33, 55.83 3.77, 50.8 6.49 M64.32 0 C59.99 2.36, 55.24 5.09, 50.8 6.49 M50.8 6.49 C49.71 1.71, 51.6 -1.6, 50.66 -6.19 M50.8 6.49 C51.17 2.49, 50.18 0.16, 50.66 -6.19 M50.66 -6.19 C54.31 -4.51, 58.85 -3.95, 64.32 0 M50.66 -6.19 C54.62 -4.51, 58.51 -3.46, 64.32 0 M64.32 0 C64.32 0, 64.32 0, 64.32 0 M64.32 0 C64.32 0, 64.32 0, 64.32 0" stroke="#1e1e1e" stroke-width="2" fill="none"></path></g></g><mask></mask><g transform="translate(829.8964504410174 107.71482984926203) rotate(0 111.86231852108085 12.5)"><text x="0" y="17.52" font-family="Virgil, Segoe UI Emoji" font-size="20px" fill="#1e1e1e" text-anchor="start" style="white-space: pre;" direction="ltr" dominant-baseline="alphabetic">Normal AuthService</text></g><g stroke-opacity="0" fill-opacity="0" stroke-linecap="round" transform="translate(260.4469761067945 376.03957736539485) rotate(0 58.378661581835615 58.3786615818356)"><path d="M47.33 0.86 C55.35 -1.84, 65.3 -0.72, 73.74 1.77 C82.18 4.27, 91.25 9.52, 97.98 15.84 C104.7 22.16, 110.92 31.11, 114.09 39.69 C117.26 48.27, 118.41 58.44, 117 67.32 C115.59 76.19, 111.23 85.81, 105.63 92.94 C100.03 100.07, 91.66 106.14, 83.4 110.07 C75.15 114, 65.16 116.71, 56.09 116.51 C47.03 116.32, 36.7 113.22, 29.01 108.9 C21.33 104.59, 14.77 98.27, 9.98 90.64 C5.19 83.01, 1.28 72.17, 0.28 63.1 C-0.72 54.04, 0.39 44.63, 3.98 36.27 C7.57 27.91, 14.48 18.9, 21.82 12.95 C29.17 6.99, 43.13 2.54, 48.03 0.54 C52.93 -1.46, 50.91 -0.11, 51.24 0.95 M64.31 -0.55 C72.9 -0.63, 83.02 3.47, 90.61 8.78 C98.2 14.1, 105.43 23.35, 109.85 31.35 C114.27 39.36, 117.26 47.94, 117.12 56.82 C116.98 65.7, 113.12 76.6, 108.99 84.62 C104.86 92.65, 99.59 99.77, 92.33 104.98 C85.08 110.18, 74.58 114.57, 65.43 115.84 C56.28 117.11, 45.93 115.55, 37.44 112.6 C28.94 109.66, 20.6 104.54, 14.44 98.17 C8.29 91.8, 2.6 83.28, 0.49 74.37 C-1.63 65.46, -0.39 53.83, 1.74 44.69 C3.87 35.55, 7.49 26.43, 13.28 19.55 C19.07 12.67, 28.01 6.66, 36.5 3.4 C44.98 0.14, 59.63 0.45, 64.2 -0.03 C68.77 -0.5, 63.8 -0.32, 63.92 0.52" stroke="#1e1e1e" stroke-width="1" fill="none"></path></g><g stroke-linecap="round" transform="translate(290.21252163457336 393.33307987351463) rotate(0 29.070519330231733 19.38034622015452)"><path d="M9.69 0 C18.78 0.51, 27.14 -0.57, 48.45 0 M9.69 0 C18.34 0.67, 27.57 1.24, 48.45 0 M48.45 0 C54.45 0.92, 57.44 2.87, 58.14 9.69 M48.45 0 C52.69 -0.3, 57.67 2.43, 58.14 9.69 M58.14 9.69 C58.45 14.92, 57.11 21.96, 58.14 29.07 M58.14 9.69 C57.82 16.72, 57.4 23.68, 58.14 29.07 M58.14 29.07 C58.83 35.97, 54.67 38.52, 48.45 38.76 M58.14 29.07 C57.32 34.13, 54.2 36.88, 48.45 38.76 M48.45 38.76 C35.38 37.06, 24.44 39.28, 9.69 38.76 M48.45 38.76 C39.19 38.28, 30.56 39.09, 9.69 38.76 M9.69 38.76 C1.43 40.71, 0.24 35.16, 0 29.07 M9.69 38.76 C1.66 37.92, -0.99 34.61, 0 29.07 M0 29.07 C-1.24 25.02, -1.38 20.13, 0 9.69 M0 29.07 C0.67 22.44, 0.71 15.36, 0 9.69 M0 9.69 C1.9 5.14, 1.62 -1.97, 9.69 0 M0 9.69 C-0.75 3.82, 4.85 -0.06, 9.69 0" stroke="#1e1e1e" stroke-width="1" fill="none"></path></g><g stroke-linecap="round" transform="translate(284.6672127802052 436.4080451903387) rotate(0 34.15842490842492 4.675677934232979)"><path d="M2.34 0 C19.65 -0.42, 34.62 -0.53, 65.98 0 M2.34 0 C16.96 0.36, 31.49 0.1, 65.98 0 M65.98 0 C67.19 -0.18, 67.35 0.65, 68.32 2.34 M65.98 0 C67.3 -0.4, 68.17 1.74, 68.32 2.34 M68.32 2.34 C68.18 4.3, 68.44 5.9, 68.32 7.01 M68.32 2.34 C68.23 3.48, 68.35 4.56, 68.32 7.01 M68.32 7.01 C68.2 8.45, 67.18 8.74, 65.98 9.35 M68.32 7.01 C67.96 7.63, 67.57 9.82, 65.98 9.35 M65.98 9.35 C45.09 9.28, 23.96 8.7, 2.34 9.35 M65.98 9.35 C48.45 9.45, 30.89 9.72, 2.34 9.35 M2.34 9.35 C0.9 9.17, -0.68 8.21, 0 7.01 M2.34 9.35 C0.29 8.89, -0.49 8.28, 0 7.01 M0 7.01 C-0.16 5.98, 0.11 4.67, 0 2.34 M0 7.01 C0.07 5.56, 0.1 4.36, 0 2.34 M0 2.34 C-0.81 -0.21, 0.45 0.26, 2.34 0 M0 2.34 C0.81 0.75, 1.12 0.51, 2.34 0" stroke="#1e1e1e" stroke-width="1" fill="none"></path></g><g stroke-linecap="round" transform="translate(335.0350203862981 439.83248536752376) rotate(0 6.120820957724533 1.179895253357003)"><path d="M0.59 0 C3.72 -0.24, 7.23 -0.15, 11.65 0 M0.59 0 C4.29 0.07, 8.02 -0.1, 11.65 0 M11.65 0 C11.08 -0.13, 12.04 -0.15, 12.24 0.59 M11.65 0 C11.9 0.96, 13.27 0.29, 12.24 0.59 M12.24 0.59 C12.27 0.9, 12.2 1.24, 12.24 1.77 M12.24 0.59 C12.25 0.98, 12.23 1.35, 12.24 1.77 M12.24 1.77 C11.89 1.56, 11.74 1.54, 11.65 2.36 M12.24 1.77 C12.28 2.63, 12.32 1.6, 11.65 2.36 M11.65 2.36 C8.91 2.17, 6.85 2.08, 0.59 2.36 M11.65 2.36 C8.5 2.65, 5.87 2.33, 0.59 2.36 M0.59 2.36 C-0.48 1.99, -0.43 1.76, 0 1.77 M0.59 2.36 C-0.29 2.07, -0.61 1.4, 0 1.77 M0 1.77 C0.03 1.35, 0 0.99, 0 0.59 M0 1.77 C0.02 1.45, -0.03 1.05, 0 0.59 M0 0.59 C-0.33 0.45, 0.9 -0.03, 0.59 0 M0 0.59 C0.34 0.71, -0.04 -0.79, 0.59 0" stroke="#1e1e1e" stroke-width="1" fill="none"></path></g><g stroke-linecap="round" transform="translate(313.3468992641277 432.698234998388) rotate(0 6.120820957724533 1.179895253357003)"><path d="M0.59 0 C3.12 -0.14, 6.65 0.02, 11.65 0 M0.59 0 C4.88 -0.08, 9.1 -0.06, 11.65 0 M11.65 0 C11.84 -0.35, 12.11 1.03, 12.24 0.59 M11.65 0 C13.07 0.09, 12.05 -0.51, 12.24 0.59 M12.24 0.59 C12.21 1, 12.26 1.4, 12.24 1.77 M12.24 0.59 C12.24 0.98, 12.23 1.36, 12.24 1.77 M12.24 1.77 C11.93 1.34, 12.08 2.77, 11.65 2.36 M12.24 1.77 C12.52 1.41, 11.01 2.07, 11.65 2.36 M11.65 2.36 C7.94 2.05, 4.33 2.11, 0.59 2.36 M11.65 2.36 C7.88 2.36, 3.86 2.31, 0.59 2.36 M0.59 2.36 C-0.23 1.96, -0.43 1.91, 0 1.77 M0.59 2.36 C-0.41 1.6, 0.56 1.31, 0 1.77 M0 1.77 C0 1.39, -0.01 0.98, 0 0.59 M0 1.77 C-0.03 1.46, -0.02 1.21, 0 0.59 M0 0.59 C0.7 0.17, 0.49 0.45, 0.59 0 M0 0.59 C-0.24 -0.59, -0.4 -0.06, 0.59 0" stroke="#1e1e1e" stroke-width="1" fill="none"></path></g><g stroke-linecap="round" transform="translate(295.2056892832585 397.81730594397027) rotate(0 24.11446288866233 15.125362843360548)"><path d="M7.56 0 C16.72 0.07, 26.2 -0.36, 40.67 0 M7.56 0 C18.05 -0.07, 30.25 -0.29, 40.67 0 M40.67 0 C45.45 1.67, 50.02 2.67, 48.23 7.56 M40.67 0 C45.32 -1.41, 49.59 3.72, 48.23 7.56 M48.23 7.56 C48.46 10.54, 48.67 16.14, 48.23 22.69 M48.23 7.56 C47.94 11.98, 47.98 16.69, 48.23 22.69 M48.23 22.69 C48.29 28.54, 46.19 28.93, 40.67 30.25 M48.23 22.69 C46.16 27.15, 46.2 28.54, 40.67 30.25 M40.67 30.25 C31.21 29.25, 24.11 28.28, 7.56 30.25 M40.67 30.25 C26.82 29.82, 13.91 29.79, 7.56 30.25 M7.56 30.25 C1.67 29.74, -1.06 26.4, 0 22.69 M7.56 30.25 C3.63 28.55, 1.23 28.63, 0 22.69 M0 22.69 C-0.09 19.42, -0.89 15.47, 0 7.56 M0 22.69 C-0.13 16.9, 0.65 10.7, 0 7.56 M0 7.56 C0.59 3.41, 2.11 -1.38, 7.56 0 M0 7.56 C-1.2 2.41, 3 -0.33, 7.56 0" stroke="#1e1e1e" stroke-width="1" fill="none"></path></g><g transform="translate(291.7756651544504 450.5033980209462) rotate(0 27.049972534179688 12.5)"><text x="27.049972534179688" y="17.52" font-family="Virgil, Segoe UI Emoji" font-size="20px" fill="#1e1e1e" text-anchor="middle" style="white-space: pre;" direction="ltr" dominant-baseline="alphabetic">Client</text></g><g stroke-linecap="round"><g transform="translate(317.3520650726957 303.2143396671201) rotate(0 0 39.86148009080397)"><path d="M0 0 C0.89 16.02, 1.67 32.83, 0 79.72 M0 0 C-0.43 30.01, -0.87 60, 0 79.72" stroke="#1e1e1e" stroke-width="2" fill="none"></path></g></g><mask></mask><g stroke-linecap="round"><g transform="translate(939.6375159161921 329.14286503486824) rotate(0 -187.0419011289457 40.96998907979511)"><path d="M0 0 C0.14 18.39, 1.52 34.29, 0 81.28 M0 0 C0.26 21.62, 0.32 43.08, 0 81.28 M0 81.28 C-137.52 82.24, -276.66 82.19, -374.08 81.94 M0 81.28 C-120.22 82.95, -241.79 83.39, -374.08 81.94" stroke="#1e1e1e" stroke-width="2" fill="none"></path></g><g transform="translate(939.6375159161921 329.14286503486824) rotate(0 -187.0419011289457 40.96998907979511)"><path d="M-373.39 83.02 L-360.82 73.94 L-360 88.47 L-375.46 81.97" stroke="none" stroke-width="0" fill="#f8f9fa" fill-rule="evenodd"></path><path d="M-374.08 81.94 C-371.1 80.98, -367.08 78.19, -360.45 75.7 M-374.08 81.94 C-370.41 80.59, -366.79 79.1, -360.45 75.7 M-360.45 75.7 C-359.95 81.26, -361.26 85.63, -360.53 88.37 M-360.45 75.7 C-360.01 80.09, -360.94 84.41, -360.53 88.37 M-360.53 88.37 C-364.57 86.41, -366.86 85.72, -374.08 81.94 M-360.53 88.37 C-364.5 85.98, -369.02 84.81, -374.08 81.94 M-374.08 81.94 C-374.08 81.94, -374.08 81.94, -374.08 81.94 M-374.08 81.94 C-374.08 81.94, -374.08 81.94, -374.08 81.94" stroke="#1e1e1e" stroke-width="2" fill="none"></path></g></g><mask></mask><g transform="translate(395.1862313686529 321.1710527457607) rotate(0 121.97684072044974 12.5)"><text x="0" y="17.52" font-family="Virgil, Segoe UI Emoji" font-size="20px" fill="#1e1e1e" text-anchor="start" style="white-space: pre;" direction="ltr" dominant-baseline="alphabetic">POST /loging (response)</text></g><g stroke-linecap="round"><g transform="translate(381.77306106574224 298.35119274032127) rotate(0 124.98807716220807 0)"><path d="M0 0 C95.64 0.92, 192.5 -1.43, 249.98 0 M0 0 C55.05 -1.24, 111.07 -1.47, 249.98 0" stroke="#1e1e1e" stroke-width="2" fill="none"></path></g></g><mask></mask><g transform="translate(425.1949808007615 358.1236636567835) rotate(0 90.77330687247482 42.07423470655857)"><text x="0" y="9.828541227452083" font-family="Virgil, Segoe UI Emoji" font-size="11.219795921748954px" fill="#1e1e1e" text-anchor="start" style="white-space: pre;" direction="ltr" dominant-baseline="alphabetic">Body:</text><text x="0" y="23.853286129638278" font-family="Virgil, Segoe UI Emoji" font-size="11.219795921748954px" fill="#1e1e1e" text-anchor="start" style="white-space: pre;" direction="ltr" dominant-baseline="alphabetic">{   </text><text x="0" y="37.87803103182447" font-family="Virgil, Segoe UI Emoji" font-size="11.219795921748954px" fill="#1e1e1e" text-anchor="start" style="white-space: pre;" direction="ltr" dominant-baseline="alphabetic">    user_id: 1,</text><text x="0" y="51.90277593401066" font-family="Virgil, Segoe UI Emoji" font-size="11.219795921748954px" fill="#1e1e1e" text-anchor="start" style="white-space: pre;" direction="ltr" dominant-baseline="alphabetic">    name: "John",</text><text x="0" y="65.92752083619685" font-family="Virgil, Segoe UI Emoji" font-size="11.219795921748954px" fill="#1e1e1e" text-anchor="start" style="white-space: pre;" direction="ltr" dominant-baseline="alphabetic">    last_name: "Doe"</text><text x="0" y="79.95226573838305" font-family="Virgil, Segoe UI Emoji" font-size="11.219795921748954px" fill="#1e1e1e" text-anchor="start" style="white-space: pre;" direction="ltr" dominant-baseline="alphabetic">}</text></g><g transform="translate(420.82146234114555 504.41157937500566) rotate(0 90.77330687247482 14.0247449021862)"><text x="0" y="9.828541227452083" font-family="Virgil, Segoe UI Emoji" font-size="11.219795921748954px" fill="#1e1e1e" text-anchor="start" style="white-space: pre;" direction="ltr" dominant-baseline="alphabetic">Here you use these data in any</text><text x="0" y="23.853286129638278" font-family="Virgil, Segoe UI Emoji" font-size="11.219795921748954px" fill="#1e1e1e" text-anchor="start" style="white-space: pre;" direction="ltr" dominant-baseline="alphabetic">this.user data related action</text></g><g stroke-linecap="round"><g transform="translate(504.6892343695216 441.98384804182615) rotate(0 0 27.39149252395913)"><path d="M0 0 C0.7 15.3, 1.61 33.86, 0 54.78" stroke="#1e1e1e" stroke-width="2.5" fill="none" stroke-dasharray="8 10"></path></g></g><mask></mask><g stroke-linecap="round"><g transform="translate(418.602934200535 420.16905536326067) rotate(0 -31.566645897582816 0)"><path d="M0 0 C-12.91 -0.74, -25.52 -1.77, -63.13 0 M0 0 C-24.63 -0.29, -46.79 -0.42, -63.13 0" stroke="#1e1e1e" stroke-width="2" fill="none"></path></g><g transform="translate(418.602934200535 420.16905536326067) rotate(0 -31.566645897582816 0)"><path d="M-61.6 -0.29 L-49.18 -4.69 L-49.87 5.96 L-62.97 1.57" stroke="none" stroke-width="0" fill="#f8f9fa" fill-rule="evenodd"></path><path d="M-63.13 0 C-59.92 -1.88, -56.55 -4.04, -49.63 -6.54 M-63.13 0 C-58.66 -2.6, -52.37 -5.16, -49.63 -6.54 M-49.63 -6.54 C-49.2 -4.46, -48.38 0.64, -49.45 6.14 M-49.63 -6.54 C-49.54 -2.52, -50.13 1.4, -49.45 6.14 M-49.45 6.14 C-51.22 5.67, -55.91 2.39, -63.13 0 M-49.45 6.14 C-53.39 4.67, -58.71 2.23, -63.13 0 M-63.13 0 C-63.13 0, -63.13 0, -63.13 0 M-63.13 0 C-63.13 0, -63.13 0, -63.13 0" stroke="#1e1e1e" stroke-width="2" fill="none"></path></g></g><mask></mask><g stroke-linecap="round" transform="translate(10 79.60974700897535) rotate(0 615.5509618625898 241.92130071969945)"><path d="M0 0 C291.93 3.54, 585.86 2.57, 1231.1 0 M0 0 C391.37 0.03, 783.17 -0.37, 1231.1 0 M1231.1 0 C1230.49 149.29, 1230.4 298.92, 1231.1 483.84 M1231.1 0 C1228.79 117.49, 1228.9 234.9, 1231.1 483.84 M1231.1 483.84 C916.09 485.89, 603.2 486.43, 0 483.84 M1231.1 483.84 C756.91 483.29, 282.76 483.33, 0 483.84 M0 483.84 C-1.19 386.47, -1.04 287.43, 0 0 M0 483.84 C-0.66 386.05, -0.71 287.81, 0 0" stroke="#1e1e1e" stroke-width="2" fill="none"></path></g><g transform="translate(340.6850267031162 10) rotate(0 287.5545085126329 22.5)"><text x="0" y="31.536" font-family="Virgil, Segoe UI Emoji" font-size="36px" fill="#1e1e1e" text-anchor="start" style="white-space: pre;" direction="ltr" dominant-baseline="alphabetic">Normal Authentication (No JWT)</text></g></svg>