<svg width="32" height="32" viewBox="0 0 32 32" xmlns="http://www.w3.org/2000/svg">
  <!-- Pixelated blue gem -->
  
  <!-- Top section - lightest blue -->
  <rect x="14" y="4" width="4" height="2" fill="#87CEEB"/>
  <rect x="12" y="6" width="8" height="2" fill="#87CEEB"/>
  <rect x="10" y="8" width="12" height="2" fill="#87CEEB"/>
  
  <!-- Upper middle - medium light blue -->
  <rect x="8" y="10" width="16" height="2" fill="#4FC3F7"/>
  <rect x="6" y="12" width="20" height="2" fill="#4FC3F7"/>
  
  <!-- Center - bright blue -->
  <rect x="8" y="14" width="16" height="2" fill="#2196F3"/>
  <rect x="10" y="16" width="12" height="2" fill="#2196F3"/>
  
  <!-- Lower middle - darker blue -->
  <rect x="12" y="18" width="8" height="2" fill="#1976D2"/>
  <rect x="14" y="20" width="4" height="2" fill="#1976D2"/>
  
  <!-- Bottom section - darkest blue -->
  <rect x="14" y="22" width="4" height="2" fill="#0D47A1"/>
  <rect x="15" y="24" width="2" height="2" fill="#0D47A1"/>
  <rect x="15" y="26" width="2" height="2" fill="#0D47A1"/>
  
  <!-- Highlight pixels for sparkle effect -->
  <rect x="12" y="8" width="2" height="2" fill="#E3F2FD"/>
  <rect x="18" y="10" width="2" height="2" fill="#E3F2FD"/>
  <rect x="14" y="14" width="2" height="2" fill="#BBDEFB"/>
</svg> 